<svg version="1.1" class="flex-shrink-0 size-5 mt-1" viewBox="0 0 924 1204" width="24" height="24" xmlns="http://www.w3.org/2000/svg">
                        <path transform="translate(568,442)" d="m0 0h13l17 5 49 20 44 17 17 7 8 9 2 6v7l-3 9-5 6-9 4h-10l-20-7-36-14-35-14-22-9h-6l-29 11-55 19-33 11-4 2 10 6 16 8 31 16 22 12 34 18 14 8 7 3h8l17-8 19-10 66-34 19-10 25-13 15-8 7-2h7l8 3 6 5 4 8v231l-1 238-3 10-5 9-9 10-13 12-11 9-14 12-11 9-15 13-13 11-14 12-11 9-15 13-26 22-11 9-13 11-8 4-8 1-9-3-8-7-3-7-1-435-3-8-8-9-14-8-33-17-19-10-52-26-17-9-12-6v41l3 232 1 50 2 14 6 17 6 10 7 9 8 7 10 9 8 7 14 12 13 11 14 12 26 22 11 9 13 12 3 5 1 4v8l-3 8-6 7-7 3h-13l-10-6-11-10-11-9-14-12-13-11-14-12-13-11-11-10-11-9-15-14-8-8-10-15-8-16-6-18-3-16-1-39-4-291v-43l3-8 7-7 7-3h10l12 5 100 50 19 10 24 12 19 10 14 8 10 8 8 8 9 14 5 12 3 16v379l11-9 15-13 11-9 14-12 13-11 14-12 11-9 11-10 10-8 14-12 5-4 1-2 1-329v-89l-37 19-19 10-27 14-35 18-13 6-11 3h-20l-14-4-29-15-22-12-25-13-22-12-22-11-19-10-28-15-17-9-5-4-4-6-2-11 4-11 8-7 24-9 36-12 47-16 48-17 27-10z"/>
                        <path transform="translate(565,91)" d="m0 0h30l25 4 16 5 15 6 17 9 14 10 13 11 13 13 12 16 9 15 8 17 7 22 3 16 1 9v30l-2 16-6 23-10 24-11 18-10 13-14 15-13 11-17 11-15 8-15 6-23 6-13 2-14 1h-11l-21-2-18-4-20-7-19-9-15-10-14-11-14-14-13-17-9-15-8-17-7-21-4-22-1-11v-16l2-20 5-21 7-19 8-16 9-14 10-13 19-19 16-12 19-11 20-8 23-6zm4 44-18 3-16 5-13 6-12 7-10 8-10 9-11 13-9 15-7 15-5 17-2 13v27l4 20 6 17 8 15 8 11 9 10 9 9 16 11 16 8 14 5 12 3 7 1h30l19-4 16-6 17-9 12-9 10-9 10-11 10-16 7-15 5-17 3-19v-18l-3-19-5-17-8-17-9-13-12-14-13-11-18-11-17-7-15-4-13-2z"/>
                        <path transform="translate(131,565)" d="m0 0h21l167 5 12 1 6 3 5 5 4 7 1 10-4 10-8 7-8 2h-21l-135-4h-12l7 206 3 99 2 31 3 12 2 5 2 1 139 1 20 1 8 4 7 8 2 6v7l-4 9-5 6-6 3-6 1h-62l-98-1-12-3-12-7-8-8-6-9-6-15-3-13-2-29-4-130-7-195v-18l5-10 7-6z"/>
                        <path transform="translate(541,901)" d="m0 0 6 2 5 5 1 7-3 5-10 7-16 9-22 13-24 14-22 13-16 9-6 2-7-4-3-6 1-7 5-5 27-16 24-14 25-15 24-14 8-4z"/>
                        <path transform="translate(631,905)" d="m0 0 6 1 11 7 10 8 16 12 17 13 20 15 16 13 4 4 1 2v7l-4 5-6 3-9-3-18-14-26-20-21-16-17-13-7-6-2-4 1-7z"/>
                        <path transform="translate(404,632)" d="m0 0h1l1 42 2 153v24h-1l-1-18-2-84z"/>
                        <path transform="translate(180,1007)" d="m0 0 28 1 95 1h36v1l-6 1h-62l-98-1-5-1v-1h8z"/>
                        <path transform="translate(631,905)" d="m0 0 6 1 3 2v2l3 3 1 4 2 3-2 1-4-2-1-2-5-1-1-4h-2v-3h-2l4 9v1h3l1 3h-3l-1 2-4-2-1-6v-2l-2-5z"/>
                        <path transform="translate(577,641)" d="m0 0 2 1v2l8-1h9l7 2-4 2h-20l-8-2v-1l6-1z"/>
                        <path transform="translate(441,972)" d="m0 0h2l-1 4-2 6 2 2-8 3-4-3 5-1 2-3-2-1v-5l2 2z"/>
                        <path transform="translate(525,1137)" d="m0 0 5 2 1-2v2h10l-2 2-3 1h-13l-2-2h4z"/>
                        <path transform="translate(346,590)" d="m0 0h1l-1 10-3 4-1-3 1-6 1-4z"/>
                        <path transform="translate(438,980)" d="m0 0 4 4-8 3-4-3 6-2z"/>
                        <path transform="translate(551,657)" d="m0 0 6 2 8 4v2l-5-1-5-3-4-2z"/>
                        </svg>