<?xml version="1.0" encoding="UTF-8"?>
<svg version="1.1" xmlns="http://www.w3.org/2000/svg" width="24" height="24" viewBox="0 0 447 438">
<path d="M0 0 C0.80356934 0.39026367 1.60713867 0.78052734 2.43505859 1.18261719 C53.56045411 26.24277174 92.72352645 70.32612574 111.69433594 124.02587891 C115.93678293 136.5093406 119.15611618 148.94525682 121 162 C121.26055176 163.76307495 121.26055176 163.76307495 121.52636719 165.56176758 C122.92963028 175.49369046 123.4029703 185.28791844 123.375 195.3125 C123.37412384 196.08969391 123.37324768 196.86688782 123.37234497 197.66763306 C123.15959121 255.42107756 99.69215551 308.43343756 59 349 C58.24203125 349.804375 57.4840625 350.60875 56.703125 351.4375 C27.53785572 381.9031316 -13.06370741 400.15870672 -54 408 C-55.20398438 408.23332031 -56.40796875 408.46664063 -57.6484375 408.70703125 C-69.15268004 410.76241649 -80.6426093 411.23982407 -92.3125 411.25 C-93.36555328 411.25101212 -93.36555328 411.25101212 -94.43988037 411.25204468 C-106.82676102 411.23326125 -118.8235175 410.34603281 -131 408 C-131.90363281 407.82839355 -132.80726563 407.65678711 -133.73828125 407.47998047 C-167.68870226 400.83828097 -199.01080529 386.65674009 -226 365 C-226.56380371 364.55188965 -227.12760742 364.1037793 -227.70849609 363.64208984 C-241.27945507 352.78290862 -253.48229537 340.541105 -263.83154297 326.56982422 C-264.89015542 325.1475764 -265.9767629 323.7462722 -267.06640625 322.34765625 C-288.01559968 294.88093597 -300.2539848 261.79394397 -306 228 C-306.13132324 227.24154785 -306.26264648 226.4830957 -306.39794922 225.70166016 C-314.8234154 174.40439688 -301.81064895 117.49714228 -272 75 C-271.22447923 73.85730061 -270.44975707 72.71405888 -269.67578125 71.5703125 C-257.86417496 54.35005688 -243.53417005 38.76359916 -227 26 C-226.46455566 25.58282715 -225.92911133 25.1656543 -225.37744141 24.73583984 C-197.06332678 2.80763457 -164.35681148 -11.96854392 -129 -18 C-127.75992188 -18.21269531 -126.51984375 -18.42539062 -125.2421875 -18.64453125 C-83.01281816 -25.21039516 -38.39775295 -18.88001794 0 0 Z " fill="#FDFDFD" transform="translate(317,24)"/>
<path d="M0 0 C0.80356934 0.39026367 1.60713867 0.78052734 2.43505859 1.18261719 C53.56045411 26.24277174 92.72352645 70.32612574 111.69433594 124.02587891 C115.93678293 136.5093406 119.15611618 148.94525682 121 162 C121.26055176 163.76307495 121.26055176 163.76307495 121.52636719 165.56176758 C122.92963028 175.49369046 123.4029703 185.28791844 123.375 195.3125 C123.37412384 196.08969391 123.37324768 196.86688782 123.37234497 197.66763306 C123.15959121 255.42107756 99.69215551 308.43343756 59 349 C58.24203125 349.804375 57.4840625 350.60875 56.703125 351.4375 C27.53785572 381.9031316 -13.06370741 400.15870672 -54 408 C-55.20398438 408.23332031 -56.40796875 408.46664063 -57.6484375 408.70703125 C-69.15268004 410.76241649 -80.6426093 411.23982407 -92.3125 411.25 C-93.36555328 411.25101212 -93.36555328 411.25101212 -94.43988037 411.25204468 C-106.82676102 411.23326125 -118.8235175 410.34603281 -131 408 C-131.90363281 407.82839355 -132.80726563 407.65678711 -133.73828125 407.47998047 C-167.68870226 400.83828097 -199.01080529 386.65674009 -226 365 C-226.56380371 364.55188965 -227.12760742 364.1037793 -227.70849609 363.64208984 C-241.27945507 352.78290862 -253.48229537 340.541105 -263.83154297 326.56982422 C-264.89015542 325.1475764 -265.9767629 323.7462722 -267.06640625 322.34765625 C-288.01559968 294.88093597 -300.2539848 261.79394397 -306 228 C-306.13132324 227.24154785 -306.26264648 226.4830957 -306.39794922 225.70166016 C-314.8234154 174.40439688 -301.81064895 117.49714228 -272 75 C-271.22447923 73.85730061 -270.44975707 72.71405888 -269.67578125 71.5703125 C-257.86417496 54.35005688 -243.53417005 38.76359916 -227 26 C-226.46455566 25.58282715 -225.92911133 25.1656543 -225.37744141 24.73583984 C-197.06332678 2.80763457 -164.35681148 -11.96854392 -129 -18 C-127.75992188 -18.21269531 -126.51984375 -18.42539062 -125.2421875 -18.64453125 C-83.01281816 -25.21039516 -38.39775295 -18.88001794 0 0 Z M-128 8 C-128 8.66 -128 9.32 -128 10 C-133.94 10.495 -133.94 10.495 -140 11 C-140 11.66 -140 12.32 -140 13 C-141.16015625 13.27263672 -141.16015625 13.27263672 -142.34375 13.55078125 C-143.3853125 13.80214844 -144.426875 14.05351563 -145.5 14.3125 C-146.5209375 14.55613281 -147.541875 14.79976562 -148.59375 15.05078125 C-155.8466637 17.07194871 -162.64657566 20.10122666 -169.5 23.1875 C-170.73363281 23.73954102 -170.73363281 23.73954102 -171.9921875 24.30273438 C-173.99576286 25.19968381 -175.99833322 26.09880143 -178 27 C-178 27.66 -178 28.32 -178 29 C-178.9075 29.103125 -179.815 29.20625 -180.75 29.3125 C-184.15627616 30.03305842 -185.29922128 30.95395552 -188 33 C-189.134375 33.28875 -190.26875 33.5775 -191.4375 33.875 C-195.63043888 35.19908596 -196.95110015 36.88050334 -200 40 C-202.19781384 41.83910595 -204.47377342 43.571911 -206.75 45.3125 C-215.23064733 51.75426026 -215.23064733 51.75426026 -223 59 C-223 59.66 -223 60.32 -223 61 C-223.59683594 61.27328125 -224.19367188 61.5465625 -224.80859375 61.828125 C-238.84108811 69.33213268 -249.05088746 89.54428957 -256.84228516 102.77319336 C-259.75834713 107.7029717 -259.75834713 107.7029717 -261.46386719 109.79931641 C-264.53030515 114.19233481 -265.99536022 119.50423321 -267.81616211 124.51489258 C-268.55279392 126.53587098 -269.30583775 128.55016731 -270.06054688 130.56445312 C-272.50849734 137.19270415 -274.54464143 143.6554567 -275.61938477 150.66625977 C-276.13982293 153.85732355 -277.11145914 156.89366116 -278 160 C-282.62589428 182.47010117 -282.26644602 205.42002684 -278.8125 228 C-278.6165625 229.30437012 -278.420625 230.60874023 -278.21875 231.95263672 C-276.79031381 240.4717688 -274.315876 248.04379742 -271 256 C-270.47108987 257.42185362 -269.95114176 258.84711635 -269.4453125 260.27734375 C-252.69263111 306.71894867 -218.04594295 344.90043263 -173.52099609 366.18505859 C-157.12853202 373.75246698 -140.7847022 378.87987681 -123 382 C-121.4840625 382.309375 -121.4840625 382.309375 -119.9375 382.625 C-89.77628989 388.05401782 -56.55536529 383.39593768 -28 373 C-26.84371094 372.58427734 -26.84371094 372.58427734 -25.6640625 372.16015625 C8.21280746 359.73863727 39.16214549 336.4802431 60 307 C60.40669922 306.4323291 60.81339844 305.8646582 61.23242188 305.27978516 C75.5401576 285.16301944 85.77380133 263.12573861 91.484375 239.13623047 C91.94167687 237.24163229 92.4368719 235.35626947 92.9375 233.47265625 C95.11212119 225.0146344 95.79639371 216.69351508 96 208 C96.04084717 206.36321289 96.04084717 206.36321289 96.08251953 204.69335938 C97.15871919 154.14581828 82.39747495 105.17736088 46.83984375 67.93359375 C45.89328846 66.95567177 44.94667344 65.97780761 44 65 C43.52836426 64.50258301 43.05672852 64.00516602 42.57080078 63.49267578 C32.14125708 52.49803659 20.38710201 42.26374239 7 35 C6.34 35 5.68 35 5 35 C5 34.34 5 33.68 5 33 C-17.08654656 21.69239305 -38.36503884 12.96539568 -63 9 C-63.71397949 8.87995605 -64.42795898 8.75991211 -65.16357422 8.63623047 C-75.97588349 6.88252984 -86.82321945 6.82161527 -97.75 6.8125 C-98.44951782 6.81141235 -99.14903564 6.81032471 -99.86975098 6.8092041 C-109.28885828 6.8108621 -118.61460218 7.20071436 -128 8 Z " fill="#6F6991" transform="translate(317,24)"/>
<path d="M0 0 C0.02578125 0.83402344 0.0515625 1.66804688 0.078125 2.52734375 C0.45355177 9.97615213 1.43540886 15.48733505 5 22 C5.36867188 22.96550781 5.73734375 23.93101563 6.1171875 24.92578125 C7.73217277 28.44316443 9.01627243 30.50341163 12 33 C15.93569453 34.14175439 19.95416102 34.243832 24.02709961 34.44067383 C37.88735318 35.13135058 49.44259313 39.96497782 60 49 C60.88429688 49.72445312 61.76859375 50.44890625 62.6796875 51.1953125 C68.2220919 55.91540171 72.50469953 60.6116966 76 67 C76.55945313 67.94746094 77.11890625 68.89492187 77.6953125 69.87109375 C83.58914892 81.28868849 84.37117792 95.54566385 81.109375 107.98046875 C79.96310599 111.17855929 78.64695962 114.03130317 77 117 C76.48050781 117.9590625 75.96101562 118.918125 75.42578125 119.90625 C69.57875745 129.82847221 61.83236729 137.12675564 52 143 C50.82244141 143.77150391 50.82244141 143.77150391 49.62109375 144.55859375 C33.61037941 154.36057307 12.22302757 155.47466191 -5.78564453 151.53955078 C-16.78709895 148.85893179 -32.45586628 143.00234934 -39.18383789 133.29125977 C-41.28582473 130.36494968 -42.82263995 128.34314833 -46.36303711 127.3112793 C-49.18971846 127.00084053 -51.96957482 126.87400784 -54.8125 126.8125 C-65.97466814 126.23021104 -76.37728117 124.54090628 -87 121 C-86.28151601 116.76175176 -84.97833945 112.86675835 -83.5625 108.8125 C-78.34407757 93.40368415 -77.72071972 81.17669837 -82.8125 65.5625 C-86.84065375 52.85159893 -90.05362535 40.3745627 -91.6875 27.125 C-91.81705078 26.1453125 -91.94660156 25.165625 -92.08007812 24.15625 C-92.72907676 19.06040887 -93.15022417 14.1362358 -93 9 C-87.72114988 9.75412145 -83.00997614 11.28813345 -78 13.0625 C-62.42396364 17.93001136 -43.26446604 16.23012397 -28 11 C-26.865625 10.61457031 -25.73125 10.22914062 -24.5625 9.83203125 C-17.93252363 7.41615543 -11.68721741 4.45016798 -5.4609375 1.13671875 C-3 0 -3 0 0 0 Z " fill="#0F0F11" transform="translate(227,83)"/>
<path d="M0 0 C17.61840612 -1.3982862 32.91585866 7.03055006 46.453125 17.51953125 C46.96359375 18.00808594 47.4740625 18.49664062 48 19 C48 19.66 48 20.32 48 21 C49.485 21.495 49.485 21.495 51 22 C60.44438593 34.33394138 64.99474657 48.48123769 63 64 C61.09615178 74.50669392 57.04316614 82.90785167 50 91 C49.20142578 91.96292969 49.20142578 91.96292969 48.38671875 92.9453125 C36.766968 105.80488777 18.58662844 112.25225815 1.6640625 113.18359375 C-10.36194582 113.41330402 -22.25944408 112.73892413 -33 107 C-34.21236328 106.443125 -34.21236328 106.443125 -35.44921875 105.875 C-43.15163301 102.28918999 -49.94917181 97.91753569 -55 91 C-54.25878906 90.9906543 -53.51757812 90.98130859 -52.75390625 90.97167969 C-33.70671609 90.67443162 -15.19211962 89.06552538 3.66601562 86.4375 C7.48258528 85.93667305 11.2996869 85.56002562 15.13574219 85.24609375 C17.0891547 85.0913863 17.0891547 85.0913863 19 84 C26.12672367 63.03598804 24.26782941 41.6220516 14.8984375 21.71484375 C11.32349043 14.49697785 6.74760992 8.57856257 1 3 C0.505 1.515 0.505 1.515 0 0 Z " fill="#DAD9E4" transform="translate(243,120)"/>
<path d="M0 0 C2.25392291 1.57035613 3.87963275 2.92722102 5.75 4.875 C6.26369141 5.4009375 6.77738281 5.926875 7.30664062 6.46875 C19.87089743 20.04000643 27.20486467 38.34731248 27.1875 56.75 C27.18741943 57.5455127 27.18733887 58.34102539 27.18725586 59.16064453 C27.13100395 64.9670257 26.54442136 70.385972 25 76 C24.66486249 77.33288099 24.3312934 78.66615834 24 80 C22.38158203 80.17390259 22.38158203 80.17390259 20.73046875 80.35131836 C16.69735364 80.78487028 12.66433671 81.2193299 8.63134766 81.65405273 C6.89146514 81.84147188 5.15155669 82.02865044 3.41162109 82.21557617 C0.8993441 82.48551997 -1.61283591 82.75635151 -4.125 83.02734375 C-4.89303955 83.10967758 -5.6610791 83.19201141 -6.45239258 83.27684021 C-10.00307602 83.66064892 -13.5433927 84.07195847 -17.08203125 84.5546875 C-20.94946752 84.99425653 -24.67200832 85.11386663 -28.5625 85.09765625 C-29.23925781 85.0962413 -29.91601562 85.09482635 -30.61328125 85.09336853 C-32.74223546 85.08783978 -34.87107842 85.07530155 -37 85.0625 C-38.45702971 85.05747576 -39.9140611 85.05291449 -41.37109375 85.04882812 C-44.9140977 85.03789388 -48.45703797 85.02068 -52 85 C-53.18131571 82.63134147 -54.34495951 80.25643484 -55.5 77.875 C-55.83386719 77.20984375 -56.16773438 76.5446875 -56.51171875 75.859375 C-56.82753906 75.20195312 -57.14335937 74.54453125 -57.46875 73.8671875 C-57.76201172 73.27019043 -58.05527344 72.67319336 -58.35742188 72.05810547 C-59.20892075 69.33085032 -59.09846338 66.83785534 -59 64 C-57.64189209 63.93268677 -57.64189209 63.93268677 -56.25634766 63.86401367 C-29.29601138 63.90397329 -29.29601138 63.90397329 -4.00390625 56.9453125 C-0.15571622 54.91168956 3.11911118 54.41849572 7.5 54.25 C8.7271875 54.19328125 9.954375 54.1365625 11.21875 54.078125 C12.1365625 54.05234375 13.054375 54.0265625 14 54 C14 53.01 14 52.02 14 51 C9.66988484 48.11325656 6.07428014 48.33574321 1 49 C-1.36508904 50.04776455 -1.36508904 50.04776455 -3.6484375 51.41796875 C-9.07327038 54.2473756 -14.02006833 55.13999057 -20.0625 55.75 C-21.59124756 55.92474854 -21.59124756 55.92474854 -23.15087891 56.10302734 C-32.13092237 57.06219395 -41.12705621 57.47600302 -50.15258789 57.70996094 C-51.15153076 57.73606445 -52.15047363 57.76216797 -53.1796875 57.7890625 C-54.06382324 57.80662598 -54.94795898 57.82418945 -55.85888672 57.84228516 C-58.05162799 57.86735584 -58.05162799 57.86735584 -60 59 C-60.02709444 56.91673869 -60.04643873 54.83337559 -60.0625 52.75 C-60.07410156 51.58984375 -60.08570313 50.4296875 -60.09765625 49.234375 C-60.01682882 46.55737061 -59.69888645 44.54404342 -59 42 C-57.75605469 41.95101562 -56.51210937 41.90203125 -55.23046875 41.8515625 C-41.48056635 41.25836981 -28.54145675 40.27072838 -16 34 C-14.0406396 33.91489795 -12.07837206 33.89282344 -10.1171875 33.90234375 C-8.95058594 33.90556641 -7.78398437 33.90878906 -6.58203125 33.91210938 C-5.35871094 33.92048828 -4.13539063 33.92886719 -2.875 33.9375 C-1.64394531 33.94201172 -0.41289062 33.94652344 0.85546875 33.95117188 C3.90369392 33.9629867 6.95182314 33.97945972 10 34 C9.67 32.35 9.34 30.7 9 29 C4.75037572 28.85263253 0.50142287 28.76524284 -3.75 28.6875 C-4.93722656 28.64560547 -6.12445313 28.60371094 -7.34765625 28.56054688 C-14.98114948 28.45626418 -20.51021828 29.57688409 -27.42285156 32.81323242 C-35.83598105 36.68744827 -45.92152733 36.29443695 -55 36 C-54.14253283 31.01811572 -53.07040953 27.23114983 -49 24 C-45.8205931 23.10870183 -42.76794174 22.73254547 -39.484375 22.39453125 C-35.16623751 21.90559416 -31.13069779 20.83484262 -26.94921875 19.68359375 C-19.45326643 17.94612136 -12.15639729 17.87218952 -4.5 17.9375 C-3.48679688 17.94201172 -2.47359375 17.94652344 -1.4296875 17.95117188 C1.04693827 17.96285407 3.52343657 17.97923418 6 18 C6 16.68 6 15.36 6 14 C-7.1363089 11.1084695 -21.13258522 12.28625552 -33.8828125 16.22265625 C-36.85477616 16.96378503 -38.20323453 17.10618336 -41 16 C-30.41344691 7.12672966 -14.54084008 -2.0744405 0 0 Z " fill="#9F99BE" transform="translate(234,120)"/>
<path d="M0 0 C0.09796875 0.61746094 0.1959375 1.23492187 0.296875 1.87109375 C1.6890074 9.75584365 3.94810461 16.68513077 9 23 C9 23.66 9 24.32 9 25 C6.77092605 25.47959778 4.54173703 25.9586608 2.3125 26.4375 C1.07113281 26.70433594 -0.17023438 26.97117187 -1.44921875 27.24609375 C-4.29612015 27.85055136 -7.14455626 28.43764684 -10 29 C-10.495 27.515 -10.495 27.515 -11 26 C-12.97908485 25.97247023 -14.95828731 25.95336998 -16.9375 25.9375 C-18.03964844 25.92589844 -19.14179688 25.91429688 -20.27734375 25.90234375 C-23.76599267 25.9938613 -27.12056193 26.32981262 -30.57983398 26.74389648 C-34.89638169 27.20067632 -39.22753742 27.36849214 -43.5625 27.5625 C-44.93245117 27.62727539 -44.93245117 27.62727539 -46.33007812 27.69335938 C-48.55327991 27.79811757 -50.77656707 27.90029017 -53 28 C-53.33 29.32 -53.66 30.64 -54 32 C-42.12 32 -30.24 32 -18 32 C-22 36 -22 36 -24.75 37.8125 C-27.90835464 39.71532681 -27.90835464 39.71532681 -29.49609375 41.80859375 C-32.08339134 44.77830946 -34.19058375 46.74378889 -38.21728516 47.31396484 C-43.82557341 47.61485499 -49.39979879 47.35565794 -55 47 C-54.67 48.65 -54.34 50.3 -54 52 C-50.04 52.33 -46.08 52.66 -42 53 C-42.66 54.65 -43.32 56.3 -44 58 C-44.5878125 59.60875 -44.5878125 59.60875 -45.1875 61.25 C-47 64 -47 64 -50.6875 64.875 C-51.780625 64.91625 -52.87375 64.9575 -54 65 C-54.33 66.65 -54.66 68.3 -55 70 C-53.35 70 -51.7 70 -50 70 C-50.165 71.0725 -50.33 72.145 -50.5 73.25 C-52.07528781 86.6517023 -50.08767456 97.89442365 -44 110 C-44 110.66 -44 111.32 -44 112 C-54.33114693 111.61090486 -63.93298194 110.5010248 -74 108 C-73.06571661 102.93288658 -72.0264471 98.07140043 -70.375 93.1875 C-65.90822541 76.59994644 -69.70027457 61.14124604 -75.18505859 45.35229492 C-77.52515014 38.5977167 -78.69931085 31.99824122 -79.625 24.9375 C-79.7590625 23.97005859 -79.893125 23.00261719 -80.03125 22.00585938 C-80.66192664 17.30474419 -81.17643786 12.75580222 -81 8 C-78.44392286 8.47522734 -75.96911571 9.00922704 -73.4765625 9.75390625 C-50.90823068 16.15341952 -26.21505751 11.76655931 -5.6171875 1.27734375 C-3 0 -3 0 0 0 Z " fill="#F7EFF7" transform="translate(222,92)"/>
<path d="M0 0 C6.64951729 1.47767051 12.1245672 4.62136052 18 8 C18 9.32 18 10.64 18 12 C16.36368108 13.04892238 14.69514137 14.04906703 13 15 C12.67 15.99 12.34 16.98 12 18 C12.5671875 18.23460937 13.134375 18.46921875 13.71875 18.7109375 C20.86683653 22.75009598 25.94691129 30.56639271 29 38 C29 38.66 29 39.32 29 40 C31.62901288 38.47793991 33.84365964 37.15634036 36 35 C36.99 35 37.98 35 39 35 C39.67342882 51.83572061 37.74142883 64.21589602 26 77 C25.34 77 24.68 77 24 77 C23.505 78.485 23.505 78.485 23 80 C20.48046875 81.90234375 20.48046875 81.90234375 17.1875 83.9375 C16.12917969 84.60652344 15.07085937 85.27554688 13.98046875 85.96484375 C4.48932529 91.15053153 -4.72451138 92.67554802 -15.4375 92.5 C-16.62674072 92.48718994 -17.81598145 92.47437988 -19.04125977 92.46118164 C-32.35478346 92.15284149 -43.0636152 89.00031032 -54 81 C-54 80.34 -54 79.68 -54 79 C-58.95 79.495 -58.95 79.495 -64 80 C-64.33 79.34 -64.66 78.68 -65 78 C-64.25878906 77.9906543 -63.51757812 77.98130859 -62.75390625 77.97167969 C-43.70671609 77.67443162 -25.19211962 76.06552538 -6.33398438 73.4375 C-2.51741472 72.93667305 1.2996869 72.56002562 5.13574219 72.24609375 C7.0891547 72.0913863 7.0891547 72.0913863 9 71 C16.74203421 48.22598695 13.44266616 26.2413323 3 5 C2.02520005 3.31847009 1.03551911 1.64483371 0 0 Z " fill="#A29DC2" transform="translate(253,133)"/>
<path d="M0 0 C2.66735273 2.48952921 4.55746343 4.63408134 6 8 C5.34 8.66 4.68 9.32 4 10 C3.34 10.99 2.68 11.98 2 13 C1.505 12.505 1.505 12.505 1 12 C-13.29712119 11.86357709 -28.34624172 17.44835465 -39 27 C-37.72125 26.71125 -36.4425 26.4225 -35.125 26.125 C-33.41894622 25.73976205 -31.70998452 25.36739721 -30 25 C-29.2884375 24.83242187 -28.576875 24.66484375 -27.84375 24.4921875 C-21.4209583 23.06490046 -15.31730798 22.69587384 -8.75 22.75 C-7.31914062 22.73839844 -7.31914062 22.73839844 -5.859375 22.7265625 C-0.84209324 22.74049939 3.30199461 23.01359504 8 25 C7.505 27.475 7.505 27.475 7 30 C6.12601563 29.97643433 6.12601563 29.97643433 5.234375 29.95239258 C-8.98743594 29.62116526 -21.64185295 30.56134949 -35.4375 34.125 C-38.43032276 34.86007928 -40.66320842 35.04593355 -43.6875 35.125 C-46.5694791 35.38383059 -47.6301859 35.60998228 -49.64453125 37.734375 C-51.55299974 40.74832523 -52.87153072 43.61459215 -54 47 C-37.51577146 45.9902437 -37.51577146 45.9902437 -22.09765625 40.94921875 C-15.89197523 38.13234696 -9.69599473 38.52671037 -3 38.6875 C-1.76121094 38.69716797 -0.52242188 38.70683594 0.75390625 38.71679688 C9.83138636 38.83138636 9.83138636 38.83138636 11 40 C11.04063832 41.66617115 11.042721 43.33388095 11 45 C9.88927124 45.01401855 9.88927124 45.01401855 8.75610352 45.02832031 C5.35759348 45.08244601 1.96039798 45.16601112 -1.4375 45.25 C-2.60216797 45.26417969 -3.76683594 45.27835938 -4.96679688 45.29296875 C-12.28797811 45.49919921 -17.54441149 46.61544185 -24 50 C-32.29851285 52.76617095 -40.34288436 53.14893817 -49 53.0625 C-49.87011719 53.05798828 -50.74023438 53.05347656 -51.63671875 53.04882812 C-53.75784293 53.0371736 -55.8789311 53.01924357 -58 53 C-58 58.28 -58 63.56 -58 69 C-57.505 68.505 -57.505 68.505 -57 68 C-55.42895735 67.87779728 -53.85282479 67.82017536 -52.27734375 67.7890625 C-51.27517822 67.76295898 -50.2730127 67.73685547 -49.24047852 67.70996094 C-48.15049561 67.68192383 -47.0605127 67.65388672 -45.9375 67.625 C-36.93902707 67.31553731 -28.00943304 66.77343685 -19.0625 65.75 C-18.10013428 65.65283691 -17.13776855 65.55567383 -16.14624023 65.45556641 C-10.14078155 64.71267707 -5.57004419 63.11188416 -0.32348633 60.08105469 C3.59193697 58.25931524 7.79768912 58.11530297 12 59 C14.2890625 60.53125 14.2890625 60.53125 16 62 C15.67 63.32 15.34 64.64 15 66 C14.0821875 66.02578125 13.164375 66.0515625 12.21875 66.078125 C10.37796875 66.16320312 10.37796875 66.16320312 8.5 66.25 C7.2934375 66.29640625 6.086875 66.3428125 4.84375 66.390625 C0.90315238 67.01535389 -1.50925692 68.17163439 -4.95507812 70.02880859 C-8.34364237 71.63813388 -11.81145086 72.15427959 -15.5 72.6875 C-16.28044678 72.80778564 -17.06089355 72.92807129 -17.86499023 73.05200195 C-31.20181762 75.01048151 -44.54920974 75.14982316 -58 75 C-57.00501047 80.65572998 -55.62060231 85.25675581 -52.609375 90.17578125 C-52 92 -52 92 -52.890625 94.23046875 C-53.25671875 94.81441406 -53.6228125 95.39835937 -54 96 C-55.32 95.67 -56.64 95.34 -58 95 C-57.01 95 -56.02 95 -55 95 C-55.5775 93.96875 -56.155 92.9375 -56.75 91.875 C-62.9356631 79.37112388 -65.12866083 66.41814769 -61 53 C-62.65 53 -64.3 53 -66 53 C-66.042721 51.33388095 -66.04063832 49.66617115 -66 48 C-65 47 -65 47 -61.4375 46.9375 C-60.303125 46.958125 -59.16875 46.97875 -58 47 C-57.9175 46.29875 -57.835 45.5975 -57.75 44.875 C-56.82972275 41.34727053 -55.11873023 38.93888386 -53 36 C-54.28197266 36.01740234 -54.28197266 36.01740234 -55.58984375 36.03515625 C-56.69457031 36.04417969 -57.79929688 36.05320313 -58.9375 36.0625 C-60.03964844 36.07410156 -61.14179688 36.08570313 -62.27734375 36.09765625 C-65 36 -65 36 -66 35 C-66.04063832 33.33382885 -66.042721 31.66611905 -66 30 C-64.11667969 30.04833984 -64.11667969 30.04833984 -62.1953125 30.09765625 C-50.7767613 30.32155438 -50.7767613 30.32155438 -41.25 24.6875 C-40.57453125 23.90761719 -39.8990625 23.12773437 -39.203125 22.32421875 C-37 20 -37 20 -30 16 C-41.55 16 -53.1 16 -65 16 C-65.33 14.68 -65.66 13.36 -66 12 C-63.61363895 9.61363895 -63.00521886 9.72712868 -59.74609375 9.62109375 C-58.89080078 9.58693359 -58.03550781 9.55277344 -57.15429688 9.51757812 C-55.80948242 9.47793945 -55.80948242 9.47793945 -54.4375 9.4375 C-49.36447016 9.26075248 -44.3317791 9.08207396 -39.2890625 8.4765625 C-35.48824509 8.02022888 -31.7696808 7.89716125 -27.9375 7.9375 C-26.24947266 7.95103516 -26.24947266 7.95103516 -24.52734375 7.96484375 C-23.27630859 7.98224609 -23.27630859 7.98224609 -22 8 C-21.505 9.98 -21.505 9.98 -21 12 C-19.906875 11.525625 -18.81375 11.05125 -17.6875 10.5625 C-12.56523487 8.61291255 -7.43438112 8.28970046 -2 8 C-2.66 6.35 -3.32 4.7 -4 3 C-2.68 3 -1.36 3 0 3 C0 2.01 0 1.02 0 0 Z " fill="#131214" transform="translate(233,109)"/>
<path d="M0 0 C5.61 0 11.22 0 17 0 C20.38609113 8.12661871 23.39237425 15.7928479 25.36328125 24.3828125 C26.06383605 27.2623936 27.02406816 29.91921895 28.10546875 32.671875 C29.36378761 35.94680094 30.53792906 39.24829425 31.6875 42.5625 C32.12449219 43.80128906 32.56148438 45.04007812 33.01171875 46.31640625 C34 50 34 50 34 57 C29.05 57 24.1 57 19 57 C18.505 52.545 18.505 52.545 18 48 C12.06 48 6.12 48 0 48 C-0.66 50.97 -1.32 53.94 -2 57 C-6.95 57 -11.9 57 -17 57 C-16.30752689 52.15268822 -15.60997103 48.27643633 -14.1796875 43.7109375 C-13.81222412 42.53104248 -13.44476074 41.35114746 -13.06616211 40.13549805 C-12.47653687 38.27405151 -12.47653687 38.27405151 -11.875 36.375 C-11.47053134 35.08577276 -11.0663181 33.79646536 -10.66235352 32.50708008 C-7.24244606 21.62676365 -3.67023924 10.79829231 0 0 Z " fill="#080808" transform="translate(236,245)"/>
<path d="M0 0 C15.18 0 30.36 0 46 0 C46 4.62 46 9.24 46 14 C40.72 14 35.44 14 30 14 C30 28.19 30 42.38 30 57 C25.05 57 20.1 57 15 57 C15 42.81 15 28.62 15 14 C10.05 14 5.1 14 0 14 C0 9.38 0 4.76 0 0 Z " fill="#050505" transform="translate(175,245)"/>
<path d="M0 0 C2.25342234 1.57000737 3.87927905 2.92835034 5.75 4.875 C6.26006592 5.39368652 6.77013184 5.91237305 7.2956543 6.44677734 C13.39392238 13.00338419 18.92812811 21.55021483 22 30 C21.67 30.66 21.34 31.32 21 32 C19.2421875 30.95833333 17.484375 29.91666667 15.7265625 28.875 C14.02527333 27.84931652 14.02527333 27.84931652 12 28 C11.505 30.475 11.505 30.475 11 33 C10.01 31.02 10.01 31.02 9 29 C4.75037572 28.85263253 0.50142287 28.76524284 -3.75 28.6875 C-4.93722656 28.64560547 -6.12445313 28.60371094 -7.34765625 28.56054688 C-14.98114948 28.45626418 -20.51021828 29.57688409 -27.42285156 32.81323242 C-35.83598105 36.68744827 -45.92152733 36.29443695 -55 36 C-54.14253283 31.01811572 -53.07040953 27.23114983 -49 24 C-45.8205931 23.10870183 -42.76794174 22.73254547 -39.484375 22.39453125 C-35.16623751 21.90559416 -31.13069779 20.83484262 -26.94921875 19.68359375 C-19.45326643 17.94612136 -12.15639729 17.87218952 -4.5 17.9375 C-3.48679688 17.94201172 -2.47359375 17.94652344 -1.4296875 17.95117188 C1.04693827 17.96285407 3.52343657 17.97923418 6 18 C6 16.68 6 15.36 6 14 C-7.1363089 11.1084695 -21.13258522 12.28625552 -33.8828125 16.22265625 C-36.85477616 16.96378503 -38.20323453 17.10618336 -41 16 C-30.41344691 7.12672966 -14.54084008 -2.0744405 0 0 Z " fill="#9D96BC" transform="translate(234,120)"/>
<path d="M0 0 C4.95 0 9.9 0 15 0 C15 19.14 15 38.28 15 58 C10.05 58 5.1 58 0 58 C0 38.86 0 19.72 0 0 Z " fill="#080808" transform="translate(277,245)"/>
<path d="M0 0 C4.95 0 9.9 0 15 0 C15 19.14 15 38.28 15 58 C10.05 58 5.1 58 0 58 C0 38.86 0 19.72 0 0 Z " fill="#060606" transform="translate(152,245)"/>
<path d="M0 0 C16.85499548 3.56547981 33.11677093 12.96403524 43.25 27.1875 C44.19858915 28.77299901 45.11316693 30.37914973 46 32 C46.55945313 32.94746094 47.11890625 33.89492187 47.6953125 34.87109375 C53.58914892 46.28868849 54.37117792 60.54566385 51.109375 72.98046875 C49.96310599 76.17855929 48.64695962 79.03130317 47 82 C46.48050781 82.9590625 45.96101563 83.918125 45.42578125 84.90625 C39.57875745 94.82847221 31.83236729 102.12675564 22 108 C21.21496094 108.51433594 20.42992187 109.02867187 19.62109375 109.55859375 C3.61037941 119.36057307 -17.77697243 120.47466191 -35.78564453 116.53955078 C-46.92964085 113.82419997 -59.85616468 108.33051349 -68 100 C-68 99.01 -68 98.02 -68 97 C-64.51323095 97.61254051 -62.52117216 98.96426087 -59.75 101.125 C-42.94526842 113.09312748 -23.49040394 115.95461752 -3.1875 113.4375 C14.43747968 110.06801859 30.20683871 100.7195194 40.4609375 85.88671875 C47.76048635 73.78716353 49.87507406 60.34806494 47.375 46.55078125 C44.22135899 34.87949377 37.9898383 24.00475929 28 17 C27.06542969 16.33355469 26.13085938 15.66710937 25.16796875 14.98046875 C16.86142163 9.45984126 8.5695601 6.55515854 -1 4 C-0.67 2.68 -0.34 1.36 0 0 Z " fill="#1F1F1F" transform="translate(257,118)"/>
<path d="M0 0 C2.2890625 1.53125 2.2890625 1.53125 4 3 C3.67 4.32 3.34 5.64 3 7 C2.0821875 7.02578125 1.164375 7.0515625 0.21875 7.078125 C-1.62203125 7.16320312 -1.62203125 7.16320312 -3.5 7.25 C-5.30984375 7.31960937 -5.30984375 7.31960937 -7.15625 7.390625 C-11.09684762 8.01535389 -13.50925692 9.17163439 -16.95507812 11.02880859 C-20.34364237 12.63813388 -23.81145086 13.15427959 -27.5 13.6875 C-28.28044678 13.80778564 -29.06089355 13.92807129 -29.86499023 14.05200195 C-43.20181762 16.01048151 -56.54920974 16.14982316 -70 16 C-69.00501047 21.65572998 -67.62060231 26.25675581 -64.609375 31.17578125 C-64 33 -64 33 -64.890625 35.23046875 C-65.25671875 35.81441406 -65.6228125 36.39835937 -66 37 C-67.32 36.67 -68.64 36.34 -70 36 C-69.01 36 -68.02 36 -67 36 C-67.86625 34.453125 -67.86625 34.453125 -68.75 32.875 C-73.65012079 22.96975584 -75.72539314 13.00179595 -75 2 C-74.67 2 -74.34 2 -74 2 C-73.67 5.3 -73.34 8.6 -73 12 C-72.67 8.7 -72.34 5.4 -72 2 C-71.67 2 -71.34 2 -71 2 C-70.67 4.64 -70.34 7.28 -70 10 C-69.67 9.67 -69.34 9.34 -69 9 C-67.42895735 8.87779728 -65.85282479 8.82017536 -64.27734375 8.7890625 C-62.77409546 8.74990723 -62.77409546 8.74990723 -61.24047852 8.70996094 C-60.15049561 8.68192383 -59.0605127 8.65388672 -57.9375 8.625 C-48.93902707 8.31553731 -40.00943304 7.77343685 -31.0625 6.75 C-29.61895142 6.60425537 -29.61895142 6.60425537 -28.14624023 6.45556641 C-22.14078155 5.71267707 -17.57004419 4.11188416 -12.32348633 1.08105469 C-8.40806303 -0.74068476 -4.20231088 -0.88469703 0 0 Z " fill="#2C0B2E" transform="translate(245,168)"/>
<path d="M0 0 C1.43655854 -0.08131463 2.8744483 -0.13933559 4.3125 -0.1875 C5.51326172 -0.23970703 5.51326172 -0.23970703 6.73828125 -0.29296875 C9.59490504 0.07706024 10.04346451 0.93999389 12 3 C14.21549811 4.26398812 16.40560644 5.43489054 18.6875 6.5625 C19.27466797 6.86607422 19.86183594 7.16964844 20.46679688 7.48242188 C29.47993742 11.98408837 37.67922464 12.28953549 47.625 12.1875 C48.82640625 12.18685547 50.0278125 12.18621094 51.265625 12.18554688 C56.6432928 12.15871816 61.70163187 11.99301067 67 11 C66.67 11.99 66.34 12.98 66 14 C68.89097534 15.25074869 68.89097534 15.25074869 71.5 14.4375 C74 14 74 14 77 16 C62.40282827 23.29858587 41.71536606 23.15547355 26.40625 18.15234375 C24.20700431 17.19598163 22.11467542 16.12991934 20 15 C19.19175781 14.62875 18.38351563 14.2575 17.55078125 13.875 C11.47445843 11.04620653 5.85687506 7.66879562 1 3 C0.67 2.01 0.34 1.02 0 0 Z " fill="#D8D6E2" transform="translate(190,212)"/>
<path d="M0 0 C0 0.66 0 1.32 0 2 C0.66 2 1.32 2 2 2 C2 2.66 2 3.32 2 4 C2.639375 4.268125 3.27875 4.53625 3.9375 4.8125 C6 6 6 6 7 9 C7.99 9.33 8.98 9.66 10 10 C11.38671875 11.890625 11.38671875 11.890625 12.6875 14.25 C13.12449219 15.01828125 13.56148438 15.7865625 14.01171875 16.578125 C15.11649985 19.28549371 15.36319217 21.10427861 15 24 C12.6875 25.625 12.6875 25.625 10 27 C9.46375 27.556875 8.9275 28.11375 8.375 28.6875 C7 30 7 30 4 30 C3.67128906 29.32195312 3.34257812 28.64390625 3.00390625 27.9453125 C-0.64232617 20.81094987 -5.53966653 11.73016674 -13 8 C-12.62642278 5.39611102 -12.28877098 4.25705243 -10.29296875 2.48046875 C-9.59816406 2.05378906 -8.90335937 1.62710938 -8.1875 1.1875 C-7.50042969 0.74792969 -6.81335938 0.30835938 -6.10546875 -0.14453125 C-3.60705494 -1.15965671 -2.48957835 -0.91191297 0 0 Z " fill="#FBFBFC" transform="translate(278,143)"/>
<path d="M0 0 C1.23878906 0.00966797 2.47757813 0.01933594 3.75390625 0.02929688 C12.83138636 0.14388636 12.83138636 0.14388636 14 1.3125 C14.04063832 2.97867115 14.042721 4.64638095 14 6.3125 C12.88927124 6.32651855 12.88927124 6.32651855 11.75610352 6.34082031 C8.35759348 6.39494601 4.96039798 6.47851112 1.5625 6.5625 C0.39783203 6.57667969 -0.76683594 6.59085938 -1.96679688 6.60546875 C-9.28797811 6.81169921 -14.54441149 7.92794185 -21 11.3125 C-30.6451669 14.52755563 -39.93206932 14.43976317 -50 14.3125 C-50 12.6625 -50 11.0125 -50 9.3125 C-50.66 9.3125 -51.32 9.3125 -52 9.3125 C-51.67 8.3225 -51.34 7.3325 -51 6.3125 C-51 6.9725 -51 7.6325 -51 8.3125 C-34.51577146 7.3027437 -34.51577146 7.3027437 -19.09765625 2.26171875 C-12.89197523 -0.55515304 -6.69599473 -0.16078963 0 0 Z " fill="#280729" transform="translate(230,147.6875)"/>
<path d="M0 0 C2.7734375 2.1171875 2.7734375 2.1171875 5.375 4.875 C6.68597656 6.23238281 6.68597656 6.23238281 8.0234375 7.6171875 C10 10 10 10 10 12 C8.71706055 12.01401855 8.71706055 12.01401855 7.40820312 12.02832031 C-13.67099825 12.05522995 -13.67099825 12.05522995 -34.19921875 16.2578125 C-37.01259134 17.00333662 -38.3228662 17.02916579 -41 16 C-30.42456102 7.13604511 -14.53028277 -2.08997218 0 0 Z " fill="#DBD7E3" transform="translate(234,120)"/>
<path d="M0 0 C1.42131226 -0.00785522 1.42131226 -0.00785522 2.87133789 -0.01586914 C7.82226637 0.03380279 11.92429776 0.36894614 16.5625 2.3125 C16.2325 3.9625 15.9025 5.6125 15.5625 7.3125 C14.97984375 7.29678955 14.3971875 7.2810791 13.796875 7.26489258 C-0.55382746 6.93066336 -13.26154752 7.95474836 -27.1875 11.5 C-30.4375 12.3125 -30.4375 12.3125 -34.4375 12.3125 C-34.18188677 9.9693787 -33.84479228 7.63406597 -33.4375 5.3125 C-31.18303147 4.18526573 -29.18102657 4.00643825 -26.703125 3.69921875 C-24.36582277 3.34178111 -24.36582277 3.34178111 -21.859375 2.58203125 C-14.48305732 0.52554478 -7.63838996 0.01573369 0 0 Z " fill="#2A0A2B" transform="translate(224.4375,131.6875)"/>
<path d="M0 0 C0.99 0 1.98 0 3 0 C3.125 5.75 3.125 5.75 2 8 C1.113125 8.144375 0.22625 8.28875 -0.6875 8.4375 C-5.9701464 10.92931434 -7.58345321 15.8755497 -10 21 C-9.34 21 -8.68 21 -8 21 C-8 22.65 -8 24.3 -8 26 C-9.65 26 -11.3 26 -13 26 C-13.66 33.59 -14.32 41.18 -15 49 C-15.33 49 -15.66 49 -16 49 C-17.03300166 44.75321538 -17.1336046 40.73753272 -17.125 36.375 C-17.12757813 35.06273437 -17.13015625 33.75046875 -17.1328125 32.3984375 C-17 29 -17 29 -16 26 C-17.65 26 -19.3 26 -21 26 C-21.042721 24.33388095 -21.04063832 22.66617115 -21 21 C-20 20 -20 20 -16.4375 19.9375 C-15.303125 19.958125 -14.16875 19.97875 -13 20 C-12.9175 19.29875 -12.835 18.5975 -12.75 17.875 C-11.82972275 14.34727053 -10.11873023 11.93888386 -8 9 C-8.85464844 9.01160156 -9.70929688 9.02320313 -10.58984375 9.03515625 C-11.69457031 9.04417969 -12.79929688 9.05320313 -13.9375 9.0625 C-15.03964844 9.07410156 -16.14179688 9.08570313 -17.27734375 9.09765625 C-20 9 -20 9 -21 8 C-21.04063832 6.33382885 -21.042721 4.66611905 -21 3 C-20.15236084 2.970271 -20.15236084 2.970271 -19.28759766 2.93994141 C-16.73292003 2.84481764 -14.17907459 2.73508942 -11.625 2.625 C-10.29082031 2.57859375 -10.29082031 2.57859375 -8.9296875 2.53125 C-8.07890625 2.49257812 -7.228125 2.45390625 -6.3515625 2.4140625 C-5.17327881 2.36693115 -5.17327881 2.36693115 -3.97119141 2.31884766 C-1.76997061 2.1600535 -1.76997061 2.1600535 0 0 Z " fill="#110D10" transform="translate(188,136)"/>
<path d="M0 0 C-6.13854594 16.32026877 -18.14522835 30.4262553 -29.55566406 43.34863281 C-31.10024186 45.11461054 -32.61183279 46.90629046 -34.125 48.69921875 C-36.19986528 51.12358803 -38.29657154 53.32323903 -40.75 55.375 C-44.77701575 58.79912279 -48.69513176 62.33014407 -52.60546875 65.88671875 C-53.39566406 66.58410156 -54.18585938 67.28148437 -55 68 C-55.86238281 68.76957031 -56.72476562 69.53914063 -57.61328125 70.33203125 C-58.79470703 71.15767578 -58.79470703 71.15767578 -60 72 C-60.99 71.67 -61.98 71.34 -63 71 C-63 69.68 -63 68.36 -63 67 C-62.05125 66.71125 -61.1025 66.4225 -60.125 66.125 C-56.94788422 65.23174891 -56.94788422 65.23174891 -55 63 C-54.28591666 61.01643517 -53.61382258 59.01684563 -53 57 C-52.67 57.66 -52.34 58.32 -52 59 C-50.515 58.505 -50.515 58.505 -49 58 C-48.67 57.34 -48.34 56.68 -48 56 C-47.34 56.33 -46.68 56.66 -46 57 C-46 56.01 -46 55.02 -46 54 C-44.515 53.505 -44.515 53.505 -43 53 C-43.99 52.34 -44.98 51.68 -46 51 C-46 50.01 -46 49.02 -46 48 C-43.36 48.33 -40.72 48.66 -38 49 C-38 48.34 -38 47.68 -38 47 C-36.34467377 45.98133771 -34.67739862 44.98189187 -33 44 C-32.67 43.34 -32.34 42.68 -32 42 C-31.34 42 -30.68 42 -30 42 C-30.495 39.03 -30.495 39.03 -31 36 C-28.525 35.505 -28.525 35.505 -26 35 C-25.67 34.01 -25.34 33.02 -25 32 C-24.01 31.67 -23.02 31.34 -22 31 C-21.814375 30.13375 -21.814375 30.13375 -21.625 29.25 C-20.70915946 25.95297406 -18.41294566 24.35262202 -16 22 C-15.505 20.515 -15.505 20.515 -15 19 C-14.34 19 -13.68 19 -13 19 C-12.67 17.68 -12.34 16.36 -12 15 C-11.67 15 -11.34 15 -11 15 C-11 14.34 -11 13.68 -11 13 C-11.99 12.67 -12.98 12.34 -14 12 C-13.67 11.01 -13.34 10.02 -13 9 C-11.02 9.33 -9.04 9.66 -7 10 C-6.731875 8.72125 -6.46375 7.4425 -6.1875 6.125 C-5.4086166 2.41032531 -4.32239569 0 0 0 Z " fill="#37315E" transform="translate(415,320)"/>
<path d="M0 0 C16.85499548 3.56547981 33.11677093 12.96403524 43.25 27.1875 C52.52902647 42.2360071 52.52902647 42.2360071 51.66015625 48.41796875 C51.33337891 49.20107422 51.33337891 49.20107422 51 50 C51 49.01 51 48.02 51 47 C50.34 47 49.68 47 49 47 C48.67 47.99 48.34 48.98 48 50 C47.8040625 49.21238281 47.608125 48.42476562 47.40625 47.61328125 C44.05572759 35.40986988 38.54984015 24.39742611 28 17 C27.06542969 16.33355469 26.13085938 15.66710937 25.16796875 14.98046875 C16.86142163 9.45984126 8.5695601 6.55515854 -1 4 C-0.67 2.68 -0.34 1.36 0 0 Z " fill="#242425" transform="translate(257,118)"/>
<path d="M0 0 C0 0.66 0 1.32 0 2 C-0.66 2 -1.32 2 -2 2 C-2.2475 2.61875 -2.495 3.2375 -2.75 3.875 C-4.23281451 6.39578467 -5.40863958 6.7852998 -8 8 C-8.66 8.99 -9.32 9.98 -10 11 C-10.9590625 11.433125 -10.9590625 11.433125 -11.9375 11.875 C-14.24669404 12.90733666 -14.24669404 12.90733666 -15.5625 15.625 C-16.036875 16.40875 -16.51125 17.1925 -17 18 C-17.99 18 -18.98 18 -20 18 C-20 18.99 -20 19.98 -20 21 C-20.721875 21.0825 -21.44375 21.165 -22.1875 21.25 C-26.27797935 22.34079449 -28.85457406 24.26698543 -31.203125 27.8203125 C-32.18109018 29.52142094 -33.09579333 31.25856493 -34 33 C-34.99 33 -35.98 33 -37 33 C-37.12375 33.969375 -37.2475 34.93875 -37.375 35.9375 C-37.58125 36.948125 -37.7875 37.95875 -38 39 C-38.99 39.495 -38.99 39.495 -40 40 C-40 40.99 -40 41.98 -40 43 C-42.88834003 45.10770759 -44.38462395 46 -48 46 C-48 47.98 -48 49.96 -48 52 C-48.66 52 -49.32 52 -50 52 C-50.33 52.66 -50.66 53.32 -51 54 C-53.5625 54.625 -53.5625 54.625 -56 55 C-50.92278477 43.61721101 -40.51929388 33.90763776 -32 25 C-31.36320312 24.32195312 -30.72640625 23.64390625 -30.0703125 22.9453125 C-7.97091014 0 -7.97091014 0 0 0 Z " fill="#A4A1B4" transform="translate(104,41)"/>
<path d="M0 0 C-0.99 1.32 -1.98 2.64 -3 4 C-1.35 3.67 0.3 3.34 2 3 C2 3.66 2 4.32 2 5 C-8.9176304 8.55717876 -18.55072223 9.14472402 -30 9 C-30 7.35 -30 5.7 -30 4 C-30.66 4 -31.32 4 -32 4 C-31.67 3.01 -31.34 2.02 -31 1 C-31 1.66 -31 2.32 -31 3 C-17.8293365 1.73867748 -17.8293365 1.73867748 -4.84765625 -0.73046875 C-3 -1 -3 -1 0 0 Z " fill="#2E0F30" transform="translate(210,153)"/>
<path d="M0 0 C0 1.65 0 3.3 0 5 C-5.71508075 7.44932032 -11.14851187 7.29766788 -17.25 7.25 C-18.25546875 7.25773438 -19.2609375 7.26546875 -20.296875 7.2734375 C-21.2559375 7.27085937 -22.215 7.26828125 -23.203125 7.265625 C-24.07614258 7.26336914 -24.94916016 7.26111328 -25.84863281 7.25878906 C-28 7 -28 7 -30 5 C-29.625 2.875 -29.625 2.875 -29 1 C-9.03189066 -0.14806378 -9.03189066 -0.14806378 0 0 Z " fill="#2A0C2E" transform="translate(242,187)"/>
<path d="M0 0 C0.66 0 1.32 0 2 0 C6.56249585 26.18003573 7.15445076 53.85957117 2 80 C1.34 79.67 0.68 79.34 0 79 C-0.4140625 76.93359375 -0.4140625 76.93359375 -0.625 74.4375 C-0.69976562 73.61121094 -0.77453125 72.78492188 -0.8515625 71.93359375 C-0.90054687 71.29550781 -0.94953125 70.65742188 -1 70 C-0.34 70 0.32 70 1 70 C0.01 69.34 -0.98 68.68 -2 68 C-2.1875 64.875 -2.1875 64.875 -2 62 C-1.01 62 -0.02 62 1 62 C1 61.01 1 60.02 1 59 C1.99 58.505 1.99 58.505 3 58 C3 57.34 3 56.68 3 56 C2.01 55.34 1.02 54.68 0 54 C1.485 53.505 1.485 53.505 3 53 C3.05828635 48.79172527 3.093693 44.58355511 3.125 40.375 C3.14175781 39.18519531 3.15851563 37.99539062 3.17578125 36.76953125 C3.18544922 35.03896484 3.18544922 35.03896484 3.1953125 33.2734375 C3.20578613 32.21560059 3.21625977 31.15776367 3.22705078 30.06787109 C2.98235836 26.76162913 2.10024709 24.11365032 1 21 C1 20.01 1 19.02 1 18 C0.34 17.34 -0.32 16.68 -1 16 C-0.67 15.236875 -0.34 14.47375 0 13.6875 C1.17436686 11.00930865 1.17436686 11.00930865 1 8 C0.34 7.34 -0.32 6.68 -1 6 C-0.67 5.67 -0.34 5.34 0 5 C0.04063832 3.33382885 0.042721 1.66611905 0 0 Z " fill="#4E4679" transform="translate(435,179)"/>
<path d="M0 0 C3.33333333 0 6.66666667 0 10 0 C11.2684375 -0.061875 11.2684375 -0.061875 12.5625 -0.125 C15 0 15 0 17 2 C17.33 1.34 17.66 0.68 18 0 C19.81242052 -0.02687279 21.62495233 -0.04633715 23.4375 -0.0625 C24.44683594 -0.07410156 25.45617187 -0.08570313 26.49609375 -0.09765625 C29 0 29 0 30 1 C30.04063832 2.66617115 30.042721 4.33388095 30 6 C29.01 6 28.02 6 27 6 C27 4.68 27 3.36 27 2 C26.34 2 25.68 2 25 2 C25 3.32 25 4.64 25 6 C18.4 6 11.8 6 5 6 C5 4.68 5 3.36 5 2 C4.34 2 3.68 2 3 2 C3 3.32 3 4.64 3 6 C2.01 6 1.02 6 0 6 C0 4.02 0 2.04 0 0 Z " fill="#A9A9A9" transform="translate(220,329)"/>
<path d="M0 0 C0 3 0 3 -1.390625 4.46484375 C-2.00421875 4.95082031 -2.6178125 5.43679688 -3.25 5.9375 C-5.99288563 8.17264825 -8.53753544 10.45262287 -11 13 C-12.33333333 14.33333333 -13.66666667 15.66666667 -15 17 C-14.67 17.99 -14.34 18.98 -14 20 C-14.33 20.66 -14.66 21.32 -15 22 C-16.01707031 21.74476563 -17.03414063 21.48953125 -18.08203125 21.2265625 C-22.89903852 20.94801173 -25.08556195 22.50370419 -28.6875 25.375 C-35.4102917 30.52835949 -35.4102917 30.52835949 -39 31 C-39 30.01 -39 29.02 -39 28 C-36.85895865 26.42128271 -34.77371501 25.04810304 -32.5 23.6875 C-31.20050873 22.88101997 -29.90232128 22.07243517 -28.60546875 21.26171875 C-27.97817871 20.87161621 -27.35088867 20.48151367 -26.70458984 20.07958984 C-18.865145 15.11453326 -10.77121911 8.97618795 -4.36328125 2.29296875 C-3 1 -3 1 0 0 Z " fill="#484269" transform="translate(358,354)"/>
<path d="M0 0 C2.31 0 4.62 0 7 0 C9.11161731 9.41002278 9.11161731 9.41002278 10 14 C10.66 14 11.32 14 12 14 C12.99 15.98 13.98 17.96 15 20 C12.36 20 9.72 20 7 20 C5.81796262 17.79875692 4.65459892 15.59058171 3.5 13.375 C2.99919922 12.44880859 2.99919922 12.44880859 2.48828125 11.50390625 C0.41530572 7.48487206 -0.38860447 4.51058755 0 0 Z " fill="#D7D5E2" transform="translate(175,184)"/>
<path d="M0 0 C3.48676905 0.61254051 5.47882784 1.96426087 8.25 4.125 C19.54438778 12.16872698 31.24495649 16.03161332 45 17 C45 17.33 45 17.66 45 18 C41.37 18 37.74 18 34 18 C34.99 18.66 35.98 19.32 37 20 C24.22702633 18.86462456 9.04042365 12.24765399 0 3 C0 2.01 0 1.02 0 0 Z " fill="#242423" transform="translate(189,215)"/>
<path d="M0 0 C0.66 0 1.32 0 2 0 C2.67218507 2.74875682 3.33792435 5.49880726 4 8.25 C4.19078125 9.02730469 4.3815625 9.80460937 4.578125 10.60546875 C4.75859375 11.35957031 4.9390625 12.11367188 5.125 12.890625 C5.29257813 13.58188477 5.46015625 14.27314453 5.6328125 14.98535156 C6 17 6 17 6 21 C2.37 21 -1.26 21 -5 21 C-4.30130124 16.27826731 -3.19817903 11.72224651 -1.9375 7.125 C-1.75123047 6.43664062 -1.56496094 5.74828125 -1.37304688 5.0390625 C-0.91794189 3.35867486 -0.45933322 1.67923678 0 0 Z " fill="#E2E2E2" transform="translate(244,260)"/>
<path d="M0 0 C-2.03749427 4.27307825 -4.19843242 8.07571724 -8 11 C-11.35230551 11.86059186 -14.54771547 12.04775888 -18 12 C-17.62939205 7.92331255 -16.2597176 4.66179921 -13.875 1.3828125 C-9.93353786 -1.52401583 -4.64587545 -0.46681045 0 0 Z " fill="#DAD6E6" transform="translate(197,144)"/>
<path d="M0 0 C2.21356952 2.21356952 2.8284131 2.91143577 3 6 C-0.136 11.712 -0.136 11.712 -4 13 C-5.19351312 16.34329469 -5.19351312 16.34329469 -6 20 C-6.20625 20.804375 -6.4125 21.60875 -6.625 22.4375 C-6.74875 22.953125 -6.8725 23.46875 -7 24 C-7 23.01 -7 22.02 -7 21 C-7.66 21 -8.32 21 -9 21 C-9.59732819 23.76264289 -10 26.16032769 -10 29 C-10.89780219 31.00735017 -11.86559332 32.98388755 -12.875 34.9375 C-13.40867187 35.97777344 -13.94234375 37.01804688 -14.4921875 38.08984375 C-14.98976563 39.05019531 -15.48734375 40.01054687 -16 41 C-16.66929004 42.33201842 -17.33719712 43.66474176 -18 45 C-19 43 -19 43 -17.953125 39.45703125 C-17.3970219 37.9046478 -16.82827988 36.35675951 -16.25 34.8125 C-15.94433105 33.98766113 -15.63866211 33.16282227 -15.32373047 32.31298828 C-4.83936867 4.83936867 -4.83936867 4.83936867 0 0 Z " fill="#9B98AD" transform="translate(37,112)"/>
<path d="M0 0 C0.99 0.33 1.98 0.66 3 1 C2.77139942 2.46184058 2.51629608 3.91955419 2.25 5.375 C2.11078125 6.18710937 1.9715625 6.99921875 1.828125 7.8359375 C1 10 1 10 -0.98046875 11.20703125 C-1.64691406 11.46871094 -2.31335938 11.73039062 -3 12 C-5.0117385 13.68986034 -6.05665074 15.10520852 -7.3125 17.4375 C-9.39336766 20.59733608 -11.82766302 22.00004843 -15 24 C-15.33 24.66 -15.66 25.32 -16 26 C-15.34 26.33 -14.68 26.66 -14 27 C-15.1875 28.5 -15.1875 28.5 -17 30 C-19.6875 30.1875 -19.6875 30.1875 -22 30 C-20.52918107 26.61635438 -18.61736327 24.39264338 -16.0625 21.75 C-9.90549804 15.07155813 -5.01318133 7.55256852 0 0 Z " fill="#514C73" transform="translate(382,322)"/>
<path d="M0 0 C2.66735273 2.48952921 4.55746343 4.63408134 6 8 C5.34 8.66 4.68 9.32 4 10 C3.01 11.485 3.01 11.485 2 13 C1.67 12.67 1.34 12.34 1 12 C-5.82224716 12.15837359 -12.39417691 13.37561727 -19 15 C-19 13.68 -19 12.36 -19 11 C-13.43930418 8.74566386 -7.9214349 8.40038172 -2 8 C-2.66 6.35 -3.32 4.7 -4 3 C-2.68 3 -1.36 3 0 3 C0 2.01 0 1.02 0 0 Z " fill="#191819" transform="translate(233,109)"/>
<path d="M0 0 C2.89383672 1.32087604 5.06689089 2.77543579 7.390625 4.94140625 C8.01445068 5.52132324 8.63827637 6.10124023 9.28100586 6.69873047 C9.93077393 7.31377441 10.58054199 7.92881836 11.25 8.5625 C11.91588135 9.18785645 12.5817627 9.81321289 13.26782227 10.45751953 C18.13677394 15.07408623 22.71755291 19.82822684 27 25 C26.01 25.66 25.02 26.32 24 27 C22 25.6875 22 25.6875 20 24 C20 23.01 20 22.02 20 21 C19.34 20.67 18.68 20.34 18 20 C17.34 19.34 16.68 18.68 16 18 C14.00788168 16.5196573 11.99251607 15.07503017 9.97265625 13.6328125 C7.92434391 11.93737773 6.58333452 10.12005808 5 8 C2.90584196 7.20376178 2.90584196 7.20376178 1 7 C1.33 6.01 1.66 5.02 2 4 C1.12516085 1.83284443 1.12516085 1.83284443 0 0 Z M17 22 C17.99 22.99 18.98 23.98 20 25 C18.68 24.67 17.36 24.34 16 24 C16.33 23.34 16.66 22.68 17 22 Z " fill="#797590" transform="translate(361,53)"/>
<path d="M0 0 C1.9453125 -0.29296875 1.9453125 -0.29296875 4.125 -0.1875 C5.40375 -0.125625 6.6825 -0.06375 8 0 C7.01 4.62 6.02 9.24 5 14 C2.69 14.66 0.38 15.32 -2 16 C-2.05402274 13.89611431 -2.09280256 11.79183286 -2.125 9.6875 C-2.14820313 8.51574219 -2.17140625 7.34398437 -2.1953125 6.13671875 C-2 3 -2 3 0 0 Z " fill="#D8D5E2" transform="translate(176,163)"/>
<path d="M0 0 C4.46839215 -0.21278058 7.82262526 0.40861915 12 2 C12 1.34 12 0.68 12 0 C15 1 15 1 17 2 C17 4.31 17 6.62 17 9 C14.69 9 12.38 9 10 9 C9.67 7.35 9.34 5.7 9 4 C7.02 4.33 5.04 4.66 3 5 C3 5.99 3 6.98 3 8 C2.01 8 1.02 8 0 8 C0 5.36 0 2.72 0 0 Z " fill="#787878" transform="translate(238,312)"/>
<path d="M0 0 C2.97922593 -0.02683987 5.95821295 -0.04676037 8.9375 -0.0625 C9.78763672 -0.07087891 10.63777344 -0.07925781 11.51367188 -0.08789062 C12.32255859 -0.09111328 13.13144531 -0.09433594 13.96484375 -0.09765625 C14.7137085 -0.10289307 15.46257324 -0.10812988 16.23413086 -0.11352539 C18 0 18 0 19 1 C19.04063832 2.66617115 19.042721 4.33388095 19 6 C18.34 6 17.68 6 17 6 C17 4.68 17 3.36 17 2 C16.34 2 15.68 2 15 2 C15 3.65 15 5.3 15 7 C14.01 7 13.02 7 12 7 C12 5.35 12 3.7 12 2 C11.34 2 10.68 2 10 2 C10 3.65 10 5.3 10 7 C6.7 7 3.4 7 0 7 C-1 3 -1 3 0 0 Z " fill="#ADADAD" transform="translate(204,314)"/>
<path d="M0 0 C-0.66 1.32 -1.32 2.64 -2 4 C-1.38125 3.79375 -0.7625 3.5875 -0.125 3.375 C0.57625 3.25125 1.2775 3.1275 2 3 C2.66 3.66 3.32 4.32 4 5 C1.41806023 5.67250524 -1.16532071 6.33817901 -3.75 7 C-4.47960937 7.19078125 -5.20921875 7.3815625 -5.9609375 7.578125 C-9.44571646 8.46515964 -12.38123722 9 -16 9 C-15.74438677 6.6568787 -15.40729228 4.32156597 -15 2 C-12.12189401 0.56094701 -9.17187061 0.44517482 -6 0 C-3 -1 -3 -1 0 0 Z " fill="#321332" transform="translate(206,135)"/>
<path d="M0 0 C1.0625 1.8125 1.0625 1.8125 2 4 C1.67 4.99 1.34 5.98 1 7 C1.020625 8.2375 1.04125 9.475 1.0625 10.75 C1.12344646 14.87150428 0.34916478 18.11123092 -1 22 C-1.33 22.33 -1.66 22.66 -2 23 C-2.07239745 25.23074644 -1.99649793 27.44492191 -1.9375 29.67578125 C-2 32 -2 32 -2.48413086 33.88842773 C-3.00097854 36.00400541 -3.2012298 37.93747625 -3.31640625 40.109375 C-3.35830078 40.86347656 -3.40019531 41.61757812 -3.44335938 42.39453125 C-3.48267578 43.17183594 -3.52199219 43.94914062 -3.5625 44.75 C-3.60568359 45.54277344 -3.64886719 46.33554688 -3.69335938 47.15234375 C-3.79902991 49.10137815 -3.89997966 51.05066748 -4 53 C-3.34 53.33 -2.68 53.66 -2 54 C-2.99 56.475 -2.99 56.475 -4 59 C-4.33 59 -4.66 59 -5 59 C-5.45081618 39.13634558 -5.21718558 19.30358664 0 0 Z " fill="#9592A8" transform="translate(14,171)"/>
<path d="M0 0 C5.67785117 5.36241499 9.20360353 10.98148105 12.3125 18.125 C12.84488281 19.32382813 13.37726563 20.52265625 13.92578125 21.7578125 C14.95660706 24.86903221 15.25504611 26.04954073 14 29 C14 28.01 14 27.02 14 26 C13.34 26 12.68 26 12 26 C11.67 26.99 11.34 27.98 11 29 C10.68869141 27.80117187 10.68869141 27.80117187 10.37109375 26.578125 C8.28802987 19.15230733 5.57665845 13.03991025 1.390625 6.55859375 C0 4 0 4 0 0 Z " fill="#323232" transform="translate(294,139)"/>
<path d="M0 0 C0.66 0.33 1.32 0.66 2 1 C1.34 2.65 0.68 4.3 0 6 C-0.66 6 -1.32 6 -2 6 C-2.33 6.99 -2.66 7.98 -3 9 C-3.78375 8.835 -4.5675 8.67 -5.375 8.5 C-8.6518327 7.87584139 -9.77779 7.92593 -13 9 C-13.4125 9.99 -13.825 10.98 -14.25 12 C-14.8275 12.99 -15.405 13.98 -16 15 C-19.6875 15.875 -19.6875 15.875 -23 16 C-23.33 15.01 -23.66 14.02 -24 13 C-7.37905443 2.75151182 -7.37905443 2.75151182 0 0 Z " fill="#A6A3B7" transform="translate(134,23)"/>
<path d="M0 0 C-4.44043342 2.31429369 -7.96306993 3 -13 3 C-13.66 2.67 -14.32 2.34 -15 2 C-16.83277473 1.9547463 -18.66707281 1.96141206 -20.5 2 C-25.77777778 2.11111111 -25.77777778 2.11111111 -28 1 C-28.33 1.66 -28.66 2.32 -29 3 C-30.02673828 2.75443359 -30.02673828 2.75443359 -31.07421875 2.50390625 C-34.3743278 1.93552966 -37.46554069 1.90369233 -40.8125 1.9375 C-41.97394531 1.94652344 -43.13539063 1.95554687 -44.33203125 1.96484375 C-45.21246094 1.97644531 -46.09289062 1.98804688 -47 2 C-38.82242221 -6.17757779 -10.9951537 -0.87337391 0 0 Z " fill="#9E9BAF" transform="translate(247,4)"/>
<path d="M0 0 C0.515625 0.2475 1.03125 0.495 1.5625 0.75 C-1.70051875 2.97478551 -4.88480246 5.03264436 -8.4375 6.75 C-10.1470599 7.58081416 -11.8553438 8.41425786 -13.5625 9.25 C-14.43132812 9.6728125 -15.30015625 10.095625 -16.1953125 10.53125 C-18.55091711 11.67436886 -18.55091711 11.67436886 -20.4375 13.75 C-23.0390625 14.1640625 -23.0390625 14.1640625 -26.0625 14.375 C-27.06539063 14.44976562 -28.06828125 14.52453125 -29.1015625 14.6015625 C-30.25785156 14.67503906 -30.25785156 14.67503906 -31.4375 14.75 C-27.31332761 11.03335453 -23.16342862 9.20297791 -18.0625 7.25 C-13.72149573 5.57035347 -9.5577437 3.90257384 -5.55078125 1.515625 C-2.4375 -0.25 -2.4375 -0.25 0 0 Z " fill="#4A446E" transform="translate(315.4375,385.25)"/>
<path d="M0 0 C15.84 0.495 15.84 0.495 32 1 C32 1.66 32 2.32 32 3 C27.25365112 4.35745986 22.59155911 4.22299899 17.6875 4.25 C16.76259766 4.270625 15.83769531 4.29125 14.88476562 4.3125 C9.12116711 4.34527099 5.11888671 3.68300269 0 1 C0 0.67 0 0.34 0 0 Z " fill="#0B0B0B" transform="translate(222,232)"/>
<path d="M0 0 C0.33 0.99 0.66 1.98 1 3 C-1.87333181 3.67466072 -4.74831482 4.3399234 -7.625 5 C-8.83736328 5.28617187 -8.83736328 5.28617187 -10.07421875 5.578125 C-14.47204169 6.57925543 -18.45561039 7.2353082 -23 7 C-22.34 6.34 -21.68 5.68 -21 5 C-20.01 5.33 -19.02 5.66 -18 6 C-17.7018576 2.2236068 -17.7018576 2.2236068 -19 0 C-18.21625 0.165 -17.4325 0.33 -16.625 0.5 C-13.39798496 1.11466953 -12.35281899 1.13631643 -9.25 -0.0625 C-5.68974581 -1.0894964 -3.56337965 -0.84842373 0 0 Z " fill="#3B3563" transform="translate(280,425)"/>
<path d="M0 0 C1.32 0 2.64 0 4 0 C4 2.97 4 5.94 4 9 C0.04 9 -3.92 9 -8 9 C-8 7.02 -8 5.04 -8 3 C-5.36 3 -2.72 3 0 3 C0 2.01 0 1.02 0 0 Z " fill="#9E9E9E" transform="translate(198,312)"/>
<path d="M0 0 C1 2 1 2 0.41088867 3.93945312 C0.0832251 4.71224609 -0.24443848 5.48503906 -0.58203125 6.28125 C-0.93716797 7.12300781 -1.29230469 7.96476562 -1.65820312 8.83203125 C-2.03912109 9.71246094 -2.42003906 10.59289062 -2.8125 11.5 C-3.18181641 12.38042969 -3.55113281 13.26085937 -3.93164062 14.16796875 C-6.73052612 20.73052612 -6.73052612 20.73052612 -9 23 C-10.06195878 18.98815573 -9.84274154 16.04515941 -9 12 C-8.896875 11.113125 -8.79375 10.22625 -8.6875 9.3125 C-7.80885745 6.35706595 -6.63378173 5.51641979 -4 4 C-3.34 4 -2.68 4 -2 4 C-1.34 2.68 -0.68 1.36 0 0 Z " fill="#3F3967" transform="translate(426,293)"/>
<path d="M0 0 C-0.99 1.32 -1.98 2.64 -3 4 C-3 3.34 -3 2.68 -3 2 C-4.65 3.32 -6.3 4.64 -8 6 C-8.66 5.01 -9.32 4.02 -10 3 C-13.00610488 3.98238722 -16.00380588 4.9878403 -19 6 C-19.94875 6.309375 -20.8975 6.61875 -21.875 6.9375 C-24.40639194 8.20319597 -25.500353 9.63213631 -27 12 C-28.9375 11.6875 -28.9375 11.6875 -31 11 C-31.33 10.01 -31.66 9.02 -32 8 C-28.08415567 6.68503767 -24.16718663 5.37345777 -20.25 4.0625 C-18.58324219 3.50272461 -18.58324219 3.50272461 -16.8828125 2.93164062 C-15.81289062 2.57392578 -14.74296875 2.21621094 -13.640625 1.84765625 C-12.16384277 1.3527771 -12.16384277 1.3527771 -10.65722656 0.84790039 C-3.98540984 -1.28102459 -3.98540984 -1.28102459 0 0 Z " fill="#A8A5B8" transform="translate(177,10)"/>
<path d="M0 0 C3.3 0 6.6 0 10 0 C10.33 0.99 10.66 1.98 11 3 C10.28714844 3.37511719 9.57429688 3.75023438 8.83984375 4.13671875 C3.26424715 7.11587333 -1.95571902 10.18876548 -7 14 C-7.99 13.34 -8.98 12.68 -10 12 C-0.58997722 4.51708428 -0.58997722 4.51708428 4 2 C2.68 1.34 1.36 0.68 0 0 Z " fill="#1C1C1C" transform="translate(199,123)"/>
<path d="M0 0 C1.093125 0.185625 2.18625 0.37125 3.3125 0.5625 C6.93624133 1.2578068 6.93624133 1.2578068 10 0 C10 0.66 10 1.32 10 2 C11.65 1.67 13.3 1.34 15 1 C15.66 2.32 16.32 3.64 17 5 C17 4.01 17 3.02 17 2 C17.99 1.67 18.98 1.34 20 1 C22.89932357 3.39509338 23.50168276 5.31245243 24 9 C15.50836915 7.5102402 7.9105161 4.31428738 0 1 C0 0.67 0 0.34 0 0 Z " fill="#4D4670" transform="translate(137,416)"/>
<path d="M0 0 C0.66 0 1.32 0 2 0 C5.58165209 24.77626887 5.58165209 24.77626887 5 36 C4.67 36 4.34 36 4 36 C3.95101563 35.41992188 3.90203125 34.83984375 3.8515625 34.2421875 C3.40141246 29.53889566 2.59745858 25.47288403 1 21 C1 20.01 1 19.02 1 18 C0.34 17.34 -0.32 16.68 -1 16 C-0.67 15.236875 -0.34 14.47375 0 13.6875 C1.17436686 11.00930865 1.17436686 11.00930865 1 8 C0.34 7.34 -0.32 6.68 -1 6 C-0.67 5.67 -0.34 5.34 0 5 C0.04063832 3.33382885 0.042721 1.66611905 0 0 Z " fill="#514C70" transform="translate(435,179)"/>
<path d="M0 0 C4.60387726 1.53462575 8.02041819 4.00783144 11.8125 6.9375 C12.40998047 7.38029297 13.00746094 7.82308594 13.62304688 8.27929688 C15.14257869 9.4445607 16.5790527 10.7163624 18 12 C18 12.99 18 13.98 18 15 C14.25 16.125 14.25 16.125 12 15 C12.33 13.35 12.66 11.7 13 10 C12.34 10 11.68 10 11 10 C10.67 10.66 10.34 11.32 10 12 C9.34 10.35 8.68 8.7 8 7 C6.35 7.33 4.7 7.66 3 8 C2.690625 7.05125 2.38125 6.1025 2.0625 5.125 C1.12605258 2.13919592 1.12605258 2.13919592 0 0 Z " fill="#827E99" transform="translate(342,39)"/>
<path d="M0 0 C4.0710903 0.47602627 8.31918214 0.78510942 12.30078125 -0.30078125 C14.23828125 -0.73828125 14.23828125 -0.73828125 17.30078125 -0.26953125 C21.64181376 0.31616361 25.80571016 0.37289992 30.17578125 0.32421875 C30.95501953 0.31970703 31.73425781 0.31519531 32.53710938 0.31054688 C34.43753393 0.29888783 36.33791831 0.28095752 38.23828125 0.26171875 C38.23828125 0.59171875 38.23828125 0.92171875 38.23828125 1.26171875 C29.92021076 2.22993642 21.65145277 2.41738991 13.28588867 2.39208984 C11.17554575 2.38671815 9.06541473 2.39207443 6.95507812 2.3984375 C-0.33760103 2.40164603 -7.52451427 2.21509692 -14.76171875 1.26171875 C-14.76171875 0.93171875 -14.76171875 0.60171875 -14.76171875 0.26171875 C-9.57523036 -0.58697935 -5.19818401 -0.69129563 0 0 Z " fill="#3E3A60" transform="translate(212.76171875,432.73828125)"/>
<path d="M0 0 C1.8125 1.3125 1.8125 1.3125 2.8125 4.3125 C2.4825 5.3025 2.1525 6.2925 1.8125 7.3125 C2.4725 7.3125 3.1325 7.3125 3.8125 7.3125 C4.4725 8.6325 5.1325 9.9525 5.8125 11.3125 C6.8025 10.9825 7.7925 10.6525 8.8125 10.3125 C9.4725 11.6325 10.1325 12.9525 10.8125 14.3125 C10.1525 14.9725 9.4925 15.6325 8.8125 16.3125 C6.8710604 14.56670935 4.93434216 12.81612507 3 11.0625 C2.45279297 10.57136719 1.90558594 10.08023437 1.34179688 9.57421875 C-1.49512325 6.99520045 -4.02034096 4.50620806 -6.1875 1.3125 C-2.78451493 -0.87513326 -2.78451493 -0.87513326 0 0 Z " fill="#615B81" transform="translate(77.1875,368.6875)"/>
<path d="M0 0 C2.375 -0.1875 2.375 -0.1875 5 0 C7 3 7 3 7 6 C7.66 6 8.32 6 9 6 C9 6.66 9 7.32 9 8 C9.99 8 10.98 8 12 8 C12.66 7.34 13.32 6.68 14 6 C14 6.99 14 7.98 14 9 C14.99 9 15.98 9 17 9 C17 9.99 17 10.98 17 12 C17.66 12.33 18.32 12.66 19 13 C18.01 13.495 18.01 13.495 17 14 C14.43813805 12.65821367 12.01601689 11.26873388 9.5625 9.75 C8.5405957 9.13705078 8.5405957 9.13705078 7.49804688 8.51171875 C4.30289349 6.56521003 1.58241081 4.73449103 -1 2 C-0.67 1.34 -0.34 0.68 0 0 Z " fill="#585178" transform="translate(102,394)"/>
<path d="M0 0 C2.90747877 0.40569471 5.51790229 0.78950663 8.21875 1.96875 C11.69476477 3.25760941 15.15423829 3.69791107 18.8125 4.125 C19.50537109 4.21136719 20.19824219 4.29773438 20.91210938 4.38671875 C22.60733706 4.59716081 24.30357755 4.79941672 26 5 C26 5.33 26 5.66 26 6 C22.37 6 18.74 6 15 6 C15.99 6.66 16.98 7.32 18 8 C11.58008874 7.42934122 5.98410537 5.32655091 0 3 C0 2.01 0 1.02 0 0 Z " fill="#1B1A1C" transform="translate(208,227)"/>
<path d="M0 0 C1.99170912 2.98756368 3.02907979 5.55424386 4.1875 8.9375 C4.55230469 9.97777344 4.91710937 11.01804688 5.29296875 12.08984375 C5.98896034 14.95456052 6.02529944 16.28981357 5 19 C5 18.34 5 17.68 5 17 C4.21625 16.938125 3.4325 16.87625 2.625 16.8125 C0 16 0 16 -1.5 13.8125 C-2.17302523 10.02673306 -0.94734443 8.2206081 1 5 C0.34 4.67 -0.32 4.34 -1 4 C-0.67 2.68 -0.34 1.36 0 0 Z " fill="#625C80" transform="translate(426,143)"/>
<path d="M0 0 C0.66 0 1.32 0 2 0 C6.22323462 11.52164009 6.22323462 11.52164009 8 17 C7.34 17.66 6.68 18.32 6 19 C3.875 18.625 3.875 18.625 2 18 C2.99 18 3.98 18 5 18 C4.38125 16.865625 3.7625 15.73125 3.125 14.5625 C0.95375626 10.23546622 -0.46143821 5.82593604 -1 1 C-0.67 0.67 -0.34 0.34 0 0 Z " fill="#1A191C" transform="translate(173,186)"/>
<path d="M0 0 C0.33 0 0.66 0 1 0 C1.33 3.3 1.66 6.6 2 10 C2.33 6.7 2.66 3.4 3 0 C3.33 0 3.66 0 4 0 C4.33 4.29 4.66 8.58 5 13 C10.61 13 16.22 13 22 13 C22 13.33 22 13.66 22 14 C16.39 14 10.78 14 5 14 C5 14.66 5 15.32 5 16 C3.68 16.33 2.36 16.66 1 17 C0.09586327 13.16275828 -0.10576898 9.62497726 -0.0625 5.6875 C-0.05347656 4.61886719 -0.04445312 3.55023438 -0.03515625 2.44921875 C-0.02355469 1.64097656 -0.01195312 0.83273438 0 0 Z " fill="#5D5461" transform="translate(170,170)"/>
<path d="M0 0 C2.64 0 5.28 0 8 0 C8.33 0.66 8.66 1.32 9 2 C12.23097953 2.86159454 14.22486274 3.30597523 17.375 2.0625 C17.91125 1.711875 18.4475 1.36125 19 1 C19 1.66 19 2.32 19 3 C20.29233607 4.37310707 21.62437146 5.71034824 23 7 C14.68383188 6.41640925 6.98540674 4.26200586 -1 2 C-0.67 1.34 -0.34 0.68 0 0 Z " fill="#4B466E" transform="translate(162,424)"/>
<path d="M0 0 C1.81242052 -0.02687279 3.62495233 -0.04633715 5.4375 -0.0625 C6.44683594 -0.07410156 7.45617187 -0.08570313 8.49609375 -0.09765625 C11 0 11 0 12 1 C12.04063832 2.66617115 12.042721 4.33388095 12 6 C11.01 6 10.02 6 9 6 C9 4.68 9 3.36 9 2 C8.34 2 7.68 2 7 2 C7 3.32 7 4.64 7 6 C4.69 6 2.38 6 0 6 C0 4.02 0 2.04 0 0 Z " fill="#464646" transform="translate(238,329)"/>
<path d="M0 0 C1.59178775 2.65297959 2.06854143 4.49692539 2.5 7.625 C2.66699497 11.06422625 2.66699497 11.06422625 5 13 C4.7525 13.9590625 4.7525 13.9590625 4.5 14.9375 C4.2525 15.9584375 4.2525 15.9584375 4 17 C4.66 17.99 5.32 18.98 6 20 C6.1953125 22.48046875 6.1953125 22.48046875 6.125 25.1875 C6.10695313 26.08855469 6.08890625 26.98960937 6.0703125 27.91796875 C6.03550781 28.94857422 6.03550781 28.94857422 6 30 C5.34 30 4.68 30 4 30 C3.32137828 26.50221037 2.65931111 23.00147657 2 19.5 C1.80921875 18.51773437 1.6184375 17.53546875 1.421875 16.5234375 C0.37400593 10.90985321 -0.21751082 5.7096591 0 0 Z " fill="#86829C" transform="translate(10,238)"/>
<path d="M0 0 C-2.79042625 3.28834617 -6.47328176 5.12735689 -10.1875 7.1875 C-10.84169922 7.55552734 -11.49589844 7.92355469 -12.16992188 8.30273438 C-13.77746961 9.2062466 -15.38840651 10.1037241 -17 11 C-17.33 9.68 -17.66 8.36 -18 7 C-16.02 6.67 -14.04 6.34 -12 6 C-12 5.01 -12 4.02 -12 3 C-11.34 3 -10.68 3 -10 3 C-10 2.01 -10 1.02 -10 0 C-6.33694766 -0.74926071 -3.57644848 -1.2380014 0 0 Z " fill="#37305F" transform="translate(340,401)"/>
<path d="M0 0 C1 1 1 1 1.125 3.5 C1 6 1 6 0 7 C-3 7.125 -3 7.125 -6 7 C-7 6 -7 6 -7.0625 2.9375 C-7.041875 1.968125 -7.02125 0.99875 -7 0 C-4.31633121 -1.3418344 -2.84719317 -0.73004953 0 0 Z " fill="#565656" transform="translate(163,313)"/>
<path d="M0 0 C0.33 0 0.66 0 1 0 C2.19819828 6.23063108 1.63286156 11.25024604 0.375 17.4609375 C-0.24575448 19.98607174 -0.24575448 19.98607174 1 22 C0.54625 22.37125 0.0925 22.7425 -0.375 23.125 C-2.47029394 25.54264685 -3.12013285 27.95430602 -4 31 C-5.3076111 27.33166819 -4.66459122 24.83887279 -3.6875 21.125 C-1.95391025 14.11907076 -0.91210841 7.15736831 0 0 Z " fill="#575173" transform="translate(413,234)"/>
<path d="M0 0 C0.99 0 1.98 0 3 0 C2.70703125 2.01822917 2.4140625 4.03645833 2.12109375 6.0546875 C1.8315703 8.08140667 1.8315703 8.08140667 3 10 C1.02 12.31 -0.96 14.62 -3 17 C-5.10291786 12.79416428 -2.22150226 6.70142384 -0.875 2.4375 C-0.58625 1.633125 -0.2975 0.82875 0 0 Z " fill="#504A74" transform="translate(404,276)"/>
<path d="M0 0 C1.94113934 0.92994117 3.8777951 1.8692453 5.8125 2.8125 C6.89144531 3.33457031 7.97039062 3.85664062 9.08203125 4.39453125 C11.56579702 5.76110117 13.1799378 6.87340101 15 9 C14.34 9.66 13.68 10.32 13 11 C13 10.34 13 9.68 13 9 C8.70700357 7.73735399 6.12168689 8.37049588 2 10 C2.226875 9.4225 2.45375 8.845 2.6875 8.25 C3.27095593 5.89006205 3.27095593 5.89006205 1.5625 3.875 C1.046875 3.25625 0.53125 2.6375 0 2 C0 1.34 0 0.68 0 0 Z " fill="#88839E" transform="translate(326,29)"/>
<path d="M0 0 C0.33 0.66 0.66 1.32 1 2 C-3.83317717 7.47760079 -10.04890036 11.68296679 -17 14 C-17 13.01 -17 12.02 -17 11 C-14.75518324 9.33640396 -12.56964589 7.8761753 -10.1875 6.4375 C-9.54490234 6.03853516 -8.90230469 5.63957031 -8.24023438 5.22851562 C-6.49709896 4.14650722 -4.74877012 3.07287759 -3 2 C-2.01 1.34 -1.02 0.68 0 0 Z " fill="#4F4A70" transform="translate(336,371)"/>
<path d="M0 0 C0.99 0 1.98 0 3 0 C3 0.99 3 1.98 3 3 C4.65 3.33 6.3 3.66 8 4 C7.125 7.875 7.125 7.875 6 9 C4.00041636 9.04080783 1.99954746 9.04254356 0 9 C0 6.03 0 3.06 0 0 Z " fill="#575757" transform="translate(256,312)"/>
<path d="M0 0 C0.66 0 1.32 0 2 0 C3.1151293 3.3453879 3.13299072 5.91758812 3.125 9.4375 C3.12886719 11.13712891 3.12886719 11.13712891 3.1328125 12.87109375 C3.02325193 15.45221183 2.75864877 17.54944405 2 20 C1.34 20 0.68 20 0 20 C0 13.4 0 6.8 0 0 Z " fill="#121214" transform="translate(306,165)"/>
<path d="M0 0 C1.134375 0.020625 2.26875 0.04125 3.4375 0.0625 C3.5625 2.9375 3.5625 2.9375 3.4375 6.0625 C1.4375 8.0625 1.4375 8.0625 -1.1875 8.1875 C-1.97125 8.14625 -2.755 8.105 -3.5625 8.0625 C-3.94313221 5.7364143 -4.27519945 3.40194736 -4.5625 1.0625 C-3.5625 0.0625 -3.5625 0.0625 0 0 Z " fill="#3D3D3D" transform="translate(176.5625,314.9375)"/>
<path d="M0 0 C0.66 0.33 1.32 0.66 2 1 C2 1.99 2 2.98 2 4 C-4.93 5.485 -4.93 5.485 -12 7 C-12 6.34 -12 5.68 -12 5 C-13.98 5 -15.96 5 -18 5 C-18 4.67 -18 4.34 -18 4 C-17.20335937 3.87882813 -16.40671875 3.75765625 -15.5859375 3.6328125 C-10.18426523 2.77853343 -5.18289013 1.77309399 0 0 Z " fill="#272728" transform="translate(266,228)"/>
<path d="M0 0 C0.66 0.66 1.32 1.32 2 2 C0.58435393 3.89660274 -0.83248455 5.79229517 -2.25 7.6875 C-3.03890625 8.74324219 -3.8278125 9.79898438 -4.640625 10.88671875 C-6.71826483 13.62824018 -8.83680647 16.3257768 -11 19 C-11 17.68 -11 16.36 -11 15 C-10.34 15 -9.68 15 -9 15 C-9 13.68 -9 12.36 -9 11 C-8.34 11 -7.68 11 -7 11 C-7.33 9.35 -7.66 7.7 -8 6 C-7.360625 5.896875 -6.72125 5.79375 -6.0625 5.6875 C-5.381875 5.460625 -4.70125 5.23375 -4 5 C-3.67 4.01 -3.34 3.02 -3 2 C-2.01 1.34 -1.02 0.68 0 0 Z " fill="#9F9CB1" transform="translate(77,98)"/>
<path d="M0 0 C8.37760553 -0.17740812 16.65080904 0.37659374 25 1 C25 1.66 25 2.32 25 3 C28.96 3 32.92 3 37 3 C36.67 3.99 36.34 4.98 36 6 C35.22922119 5.88406494 34.45844238 5.76812988 33.66430664 5.64868164 C30.13063295 5.11819315 26.59657206 4.59032782 23.0625 4.0625 C21.24395508 3.78889648 21.24395508 3.78889648 19.38867188 3.50976562 C12.93408324 2.54769957 6.49207637 1.66531527 0 1 C0 0.67 0 0.34 0 0 Z " fill="#B1AEBE" transform="translate(236,31)"/>
<path d="M0 0 C2.97 0 5.94 0 9 0 C8.01 0.33 7.02 0.66 6 1 C7.3089572 4.12197478 7.3089572 4.12197478 10 6 C10.33 5.34 10.66 4.68 11 4 C11.33 4.66 11.66 5.32 12 6 C11.67 6.99 11.34 7.98 11 9 C11.66 9 12.32 9 13 9 C13 9.66 13 10.32 13 11 C10.03786895 9.60879688 7.44576515 8.00410076 4.8125 6.0625 C4.11769531 5.55847656 3.42289063 5.05445313 2.70703125 4.53515625 C1 3 1 3 0 0 Z " fill="#D6D5DB" transform="translate(190,212)"/>
<path d="M0 0 C0.33 0.66 0.66 1.32 1 2 C1.66 2.33 2.32 2.66 3 3 C2.8594438 6.33357738 2.71158198 9.66679389 2.5625 13 C2.52318359 13.93457031 2.48386719 14.86914062 2.44335938 15.83203125 C1.72129307 31.71748992 1.72129307 31.71748992 -1 37 C-1.99 37.495 -1.99 37.495 -3 38 C-2.7834375 37.10023438 -2.566875 36.20046875 -2.34375 35.2734375 C0.21372264 23.45696668 0.32505426 12.05534586 0 0 Z " fill="#84819A" transform="translate(266,165)"/>
<path d="M0 0 C1.65 0.33 3.3 0.66 5 1 C5.66 3.31 6.32 5.62 7 8 C4.03 8 1.06 8 -2 8 C-1.47731534 5.23723823 -0.89130413 2.6739124 0 0 Z " fill="#424242" transform="translate(189,327)"/>
<path d="M0 0 C0.85464844 -0.01675781 1.70929688 -0.03351563 2.58984375 -0.05078125 C5.5046356 0.37745831 6.87576679 1.38959539 9.0625 3.3125 C8.7325 4.6325 8.4025 5.9525 8.0625 7.3125 C4.4325 7.3125 0.8025 7.3125 -2.9375 7.3125 C-2.9375 6.9825 -2.9375 6.6525 -2.9375 6.3125 C-0.9575 5.9825 1.0225 5.6525 3.0625 5.3125 C3.0625 3.9925 3.0625 2.6725 3.0625 1.3125 C-0.5675 1.6425 -4.1975 1.9725 -7.9375 2.3125 C-4.73125113 0.17500075 -3.71291897 0.01675001 0 0 Z " fill="#402449" transform="translate(239.9375,167.6875)"/>
<path d="M0 0 C2 3 2 3 2 5 C1.34 5 0.68 5 0 5 C-0.33 7.31 -0.66 9.62 -1 12 C-3.31 12.66 -5.62 13.32 -8 14 C-6.6744419 10.37723685 -5.05653045 7.36494652 -2.875 4.1875 C-2.33617187 3.39730469 -1.79734375 2.60710937 -1.2421875 1.79296875 C-0.83226562 1.20128906 -0.42234375 0.60960938 0 0 Z " fill="#9E9AB0" transform="translate(46,98)"/>
<path d="M0 0 C2.375 -0.125 2.375 -0.125 5 0 C5.66 0.66 6.32 1.32 7 2 C6.625 4.625 6.625 4.625 6 7 C3.625 7.125 3.625 7.125 1 7 C0.34 6.34 -0.32 5.68 -1 5 C-0.625 2.375 -0.625 2.375 0 0 Z " fill="#9D9D9D" transform="translate(252,329)"/>
<path d="M0 0 C1.30477141 3.64579605 0.67424442 5.98670262 -0.43359375 9.640625 C-0.75263672 10.71054687 -1.07167969 11.78046875 -1.40039062 12.8828125 C-1.74263672 13.99398438 -2.08488281 15.10515625 -2.4375 16.25 C-2.77587891 17.37664062 -3.11425781 18.50328125 -3.46289062 19.6640625 C-4.29968989 22.4455361 -5.14568326 25.22386656 -6 28 C-8 25 -8 25 -7.64453125 23.0546875 C-7.36996094 22.33539063 -7.09539062 21.61609375 -6.8125 20.875 C-6.37550781 19.68390625 -6.37550781 19.68390625 -5.9296875 18.46875 C-5.62289063 17.6540625 -5.31609375 16.839375 -5 16 C-4.47158142 14.46091674 -3.95050068 12.9192907 -3.4375 11.375 C-3.19257813 10.64152344 -2.94765625 9.90804688 -2.6953125 9.15234375 C-1.71636947 6.12202009 -0.84890298 3.06911078 0 0 Z " fill="#423C64" transform="translate(434,265)"/>
<path d="M0 0 C4.23429756 1.31061591 8.07407404 2.94356259 12 5 C10.75 6.5625 10.75 6.5625 9 8 C6.8125 7.6875 6.8125 7.6875 5 7 C5 6.34 5 5.68 5 5 C3.35 5.33 1.7 5.66 0 6 C-1.24546405 3.50907189 -0.7767578 2.58919267 0 0 Z " fill="#8D88A3" transform="translate(313,23)"/>
<path d="M0 0 C0 1.65 0 3.3 0 5 C-0.66 5 -1.32 5 -2 5 C-2 3.68 -2 2.36 -2 1 C-2.66 1 -3.32 1 -4 1 C-4 2.65 -4 4.3 -4 6 C-4.99 6 -5.98 6 -7 6 C-7 4.35 -7 2.7 -7 1 C-7.66 1 -8.32 1 -9 1 C-9 2.65 -9 4.3 -9 6 C-9.66 6 -10.32 6 -11 6 C-11 4.02 -11 2.04 -11 0 C-3.57142857 -1.28571429 -3.57142857 -1.28571429 0 0 Z " fill="#252525" transform="translate(223,315)"/>
<path d="M0 0 C0.99 0.33 1.98 0.66 3 1 C-1.03523352 5.81123996 -5.04467233 10.13242719 -10 14 C-10 10.2814858 -9.14087832 9.68195394 -6.6875 7 C-5.76517578 5.9790625 -5.76517578 5.9790625 -4.82421875 4.9375 C-3.24455272 3.25973908 -1.64189074 1.61663089 0 0 Z " fill="#161617" transform="translate(295,208)"/>
<path d="M0 0 C5.75 -0.125 5.75 -0.125 8 1 C7.67 2.32 7.34 3.64 7 5 C5.68 5 4.36 5 3 5 C3 5.99 3 6.98 3 8 C2.01 8 1.02 8 0 8 C0 5.36 0 2.72 0 0 Z " fill="#606060" transform="translate(238,312)"/>
<path d="M0 0 C0.33 0.66 0.66 1.32 1 2 C1.99 2.33 2.98 2.66 4 3 C4.99 4.485 4.99 4.485 6 6 C6.66 5.67 7.32 5.34 8 5 C8 5.99 8 6.98 8 8 C8.99 8 9.98 8 11 8 C10.67 9.32 10.34 10.64 10 12 C6.04 9.36 2.08 6.72 -2 4 C-1.34 2.68 -0.68 1.36 0 0 Z " fill="#8E8AA0" transform="translate(328,57)"/>
<path d="M0 0 C6.44150782 2.72525331 10.32794942 6.61676806 13 13 C10.6875 12.75 10.6875 12.75 8 12 C6.9739266 10.68662604 5.97272675 9.35335895 5 8 C2.90584196 7.20376178 2.90584196 7.20376178 1 7 C1.33 6.01 1.66 5.02 2 4 C1.12516085 1.83284443 1.12516085 1.83284443 0 0 Z " fill="#7E7998" transform="translate(361,53)"/>
<path d="M0 0 C-1.6209213 1.17232685 -3.24686833 2.3377077 -4.875 3.5 C-5.77992188 4.1496875 -6.68484375 4.799375 -7.6171875 5.46875 C-10 7 -10 7 -12 7 C-12 5.02 -12 3.04 -12 1 C-3.96428571 -1.27678571 -3.96428571 -1.27678571 0 0 Z " fill="#372F5B" transform="translate(352,394)"/>
<path d="M0 0 C0.33 0 0.66 0 1 0 C1.0293908 3.64581598 1.04692874 7.29160087 1.0625 10.9375 C1.07087891 11.95908203 1.07925781 12.98066406 1.08789062 14.03320312 C1.10731234 20.1121997 0.79820318 25.9726232 0 32 C-0.99 31.34 -1.98 30.68 -3 30 C-2.34 28.02 -1.68 26.04 -1 24 C-1.66 23.67 -2.32 23.34 -3 23 C-2.34 22.67 -1.68 22.34 -1 22 C-1 21.34 -1 20.68 -1 20 C-1.99 19.34 -2.98 18.68 -4 18 C-3.01 17.67 -2.02 17.34 -1 17 C-0.67 11.39 -0.34 5.78 0 0 Z " fill="#464067" transform="translate(439,215)"/>
<path d="M0 0 C4.97093824 0.41153737 9.44508386 0.79600832 14 3 C10.79619983 5.13586678 9.98060033 5.23132175 6.3125 5.125 C5.50425781 5.10695313 4.69601562 5.08890625 3.86328125 5.0703125 C2.94095703 5.03550781 2.94095703 5.03550781 2 5 C2 4.34 2 3.68 2 3 C1.34 3 0.68 3 0 3 C0 2.01 0 1.02 0 0 Z " fill="#938FA5" transform="translate(274,10)"/>
<path d="M0 0 C4.86896303 0.59619955 9.32790951 1.56976822 14 3 C13.0409375 3.1546875 13.0409375 3.1546875 12.0625 3.3125 C11.381875 3.539375 10.70125 3.76625 10 4 C9.67 4.99 9.34 5.98 9 7 C5.07353523 5.69117841 2.72225079 4.1255472 0 1 C0 0.67 0 0.34 0 0 Z " fill="#504A72" transform="translate(168,400)"/>
<path d="M0 0 C0.33 2.31 0.66 4.62 1 7 C-2.91211733 5.84414715 -5.8745041 4.64465038 -9 2 C-3.375 -1.125 -3.375 -1.125 0 0 Z " fill="#4B456E" transform="translate(135,409)"/>
<path d="M0 0 C2.912575 0.08566397 4.56798024 0.57910955 6.66796875 2.625 C8.16091772 4.38391375 9.60436262 6.16313019 11 8 C10.34 8 9.68 8 9 8 C8.67 8.66 8.34 9.32 8 10 C6.68 9.67 5.36 9.34 4 9 C4.020625 8.236875 4.04125 7.47375 4.0625 6.6875 C4.12942841 3.89814214 4.12942841 3.89814214 3 1 C2.01 0.67 1.02 0.34 0 0 Z " fill="#645F7F" transform="translate(85,350)"/>
<path d="M0 0 C0.66 0 1.32 0 2 0 C2.75 1.6875 2.75 1.6875 3 4 C1.1875 6.5 1.1875 6.5 -1 9 C-1.33 9.70125 -1.66 10.4025 -2 11.125 C-3.25047564 13.46964183 -4.81248236 14.54165491 -7 16 C-5.35433477 10.31497465 -2.70967216 5.23318364 0 0 Z " fill="#555072" transform="translate(396,297)"/>
<path d="M0 0 C0.33 0 0.66 0 1 0 C0.5547115 5.27315333 -0.08373163 10.01770224 -2 15 C-2.99 14.67 -3.98 14.34 -5 14 C-4.53199289 9.94393835 -4.12046792 6.53411321 -2 3 C-1.34 3.33 -0.68 3.66 0 4 C0 2.68 0 1.36 0 0 Z " fill="#2F2F31" transform="translate(308,181)"/>
<path d="M0 0 C2.02196167 2.02196167 2.67551358 3.25864486 3.6875 5.875 C3.95949219 6.55304688 4.23148437 7.23109375 4.51171875 7.9296875 C5.07336741 10.31107782 4.76694846 11.70430191 4 14 C4 13.01 4 12.02 4 11 C3.34 11 2.68 11 2 11 C1.67 11.99 1.34 12.98 1 14 C0.44417248 12.04563873 -0.09428713 10.08633018 -0.625 8.125 C-0.92664063 7.03445312 -1.22828125 5.94390625 -1.5390625 4.8203125 C-1.69117188 3.88960937 -1.84328125 2.95890625 -2 2 C-1.34 1.34 -0.68 0.68 0 0 Z " fill="#373638" transform="translate(304,154)"/>
<path d="M0 0 C5.96564796 0.50771472 10.63809899 2.38592128 16 5 C15.34 5.66 14.68 6.32 14 7 C7.82412112 6.87890434 4.62342773 4.77422671 0 1 C0 0.67 0 0.34 0 0 Z " fill="#585176" transform="translate(148,393)"/>
<path d="M0 0 C4.14298667 0.59834725 7.18194377 2.00664285 10.8125 4.0625 C11.78832031 4.61035156 12.76414063 5.15820312 13.76953125 5.72265625 C14.50558594 6.14417969 15.24164063 6.56570313 16 7 C16 7.33 16 7.66 16 8 C13.03 7.67 10.06 7.34 7 7 C7 6.34 7 5.68 7 5 C6.401875 4.9175 5.80375 4.835 5.1875 4.75 C2.4033704 3.79544128 1.56688858 2.42867729 0 0 Z " fill="#5A5478" transform="translate(130,384)"/>
<path d="M0 0 C2.31 0 4.62 0 7 0 C7 1.98 7 3.96 7 6 C4.69 6 2.38 6 0 6 C0 4.02 0 2.04 0 0 Z " fill="#414141" transform="translate(197,329)"/>
<path d="M0 0 C1.2065625 0.0309375 1.2065625 0.0309375 2.4375 0.0625 C2.7675 1.7125 3.0975 3.3625 3.4375 5.0625 C1.1275 5.3925 -1.1825 5.7225 -3.5625 6.0625 C-3.605221 4.39638095 -3.60313832 2.72867115 -3.5625 1.0625 C-2.5625 0.0625 -2.5625 0.0625 0 0 Z " fill="#515151" transform="translate(215.5625,328.9375)"/>
<path d="M0 0 C-1.485 2.475 -1.485 2.475 -3 5 C-5.97 4.67 -8.94 4.34 -12 4 C-10 1 -10 1 -8.25 0.3125 C-5.48083033 -0.0721069 -2.79197653 -0.06345401 0 0 Z " fill="#48426C" transform="translate(279,401)"/>
<path d="M0 0 C1.2065625 0.0309375 1.2065625 0.0309375 2.4375 0.0625 C2.7675 1.0525 3.0975 2.0425 3.4375 3.0625 C2.1175 2.7325 0.7975 2.4025 -0.5625 2.0625 C-0.5625 3.0525 -0.5625 4.0425 -0.5625 5.0625 C0.7575 4.7325 2.0775 4.4025 3.4375 4.0625 C3.1075 5.0525 2.7775 6.0425 2.4375 7.0625 C0.77138095 7.105221 -0.89632885 7.10313832 -2.5625 7.0625 C-3.5625 6.0625 -3.5625 6.0625 -3.6875 3.5625 C-3.51717518 0.15600356 -3.41884482 0.08338646 0 0 Z " fill="#494949" transform="translate(277.5625,313.9375)"/>
<path d="M0 0 C1.98 0 3.96 0 6 0 C6.625 1.875 6.625 1.875 7 4 C6.34 4.66 5.68 5.32 5 6 C2.375 5.625 2.375 5.625 0 5 C0 3.35 0 1.7 0 0 Z " fill="#535353" transform="translate(225,315)"/>
<path d="M0 0 C0 0.99 0 1.98 0 3 C-0.99 3.495 -0.99 3.495 -2 4 C-1.67 4.66 -1.34 5.32 -1 6 C-4.83887763 7.48320272 -7.06204091 8.22419163 -11 7 C-9.54634731 5.82750647 -8.08692581 4.66216184 -6.625 3.5 C-5.40683594 2.52546875 -5.40683594 2.52546875 -4.1640625 1.53125 C-2 0 -2 0 0 0 Z " fill="#CCC5CF" transform="translate(204,129)"/>
<path d="M0 0 C1.5 2.25 1.5 2.25 2.5 5.25 C1.84 5.25 1.18 5.25 0.5 5.25 C0.5 4.59 0.5 3.93 0.5 3.25 C-1.47536745 3.59786708 -1.47536745 3.59786708 -3.5 4.25 C-3.83 4.91 -4.16 5.57 -4.5 6.25 C-5.16 5.92 -5.82 5.59 -6.5 5.25 C-6.5 3.93 -6.5 2.61 -6.5 1.25 C-8.15 0.92 -9.8 0.59 -11.5 0.25 C-11.5 -0.08 -11.5 -0.41 -11.5 -0.75 C-3.35795996 -2.35057197 -3.35795996 -2.35057197 0 0 Z " fill="#8F86A4" transform="translate(246.5,132.75)"/>
<path d="M0 0 C0.66 0 1.32 0 2 0 C0.47940093 3.88014936 -1.86078531 5.73906562 -5.125 8.25 C-6.03507812 8.95640625 -6.94515625 9.6628125 -7.8828125 10.390625 C-8.58148438 10.92171875 -9.28015625 11.4528125 -10 12 C-10.33 11.01 -10.66 10.02 -11 9 C-10.505 8.54625 -10.01 8.0925 -9.5 7.625 C-7.77390663 6.12364481 -7.77390663 6.12364481 -8 4 C-7.01 4 -6.02 4 -5 4 C-4.34 3.34 -3.68 2.68 -3 2 C-2.34 2.33 -1.68 2.66 -1 3 C-0.67 2.01 -0.34 1.02 0 0 Z " fill="#A5A3B4" transform="translate(112,65)"/>
<path d="M0 0 C3.66172475 0.62678171 6.8818995 1.64451846 10.3125 3.0625 C11.19550781 3.42472656 12.07851563 3.78695313 12.98828125 4.16015625 C13.65214844 4.43730469 14.31601562 4.71445312 15 5 C11.265625 7.03125 11.265625 7.03125 8.875 6.75 C7 6 7 6 5 4 C3.9790625 3.7834375 3.9790625 3.7834375 2.9375 3.5625 C2.298125 3.376875 1.65875 3.19125 1 3 C0.67 2.01 0.34 1.02 0 0 Z " fill="#9692AA" transform="translate(296,16)"/>
<path d="M0 0 C3.06368776 3.81030074 4.3944535 7.41272428 6 12 C5.01 12.33 4.02 12.66 3 13 C2.01 12.34 1.02 11.68 0 11 C-0.29296875 8.3984375 -0.29296875 8.3984375 -0.1875 5.375 C-0.16042969 4.37210937 -0.13335937 3.36921875 -0.10546875 2.3359375 C-0.07066406 1.56507812 -0.03585937 0.79421875 0 0 Z " fill="#666084" transform="translate(417,123)"/>
<path d="M0 0 C2 3 2 3 2 5 C2.99 4.67 3.98 4.34 5 4 C5.5534764 6.07553648 6 7.84365964 6 10 C5.67 10.33 5.34 10.66 5 11 C5.33 11.99 5.66 12.98 6 14 C5.01 14.495 5.01 14.495 4 15 C3.32532438 13.25307205 2.66055844 11.50231475 2 9.75 C1.62875 8.77546875 1.2575 7.8009375 0.875 6.796875 C0 4 0 4 0 0 Z " fill="#797592" transform="translate(17,276)"/>
<path d="M0 0 C1.051875 0.144375 2.10375 0.28875 3.1875 0.4375 C3.1875 0.7675 3.1875 1.0975 3.1875 1.4375 C1.2075 1.4375 -0.7725 1.4375 -2.8125 1.4375 C-2.895 2.55125 -2.9775 3.665 -3.0625 4.8125 C-3.8125 8.4375 -3.8125 8.4375 -5.875 9.875 C-6.8340625 10.1534375 -6.8340625 10.1534375 -7.8125 10.4375 C-8.8125 7.4375 -8.8125 7.4375 -8.0625 5.61328125 C-4.6551481 0.53419732 -4.6551481 0.53419732 0 0 Z M-3.8125 5.4375 C-2.8225 5.9325 -2.8225 5.9325 -1.8125 6.4375 C-2.8025 6.9325 -2.8025 6.9325 -3.8125 7.4375 C-3.8125 6.7775 -3.8125 6.1175 -3.8125 5.4375 Z " fill="#C4C1C9" transform="translate(188.8125,143.5625)"/>
<path d="M0 0 C2.31 0 4.62 0 7 0 C7 1.98 7 3.96 7 6 C6.34 6 5.68 6 5 6 C5 4.68 5 3.36 5 2 C4.34 2 3.68 2 3 2 C3 3.32 3 4.64 3 6 C2.01 6 1.02 6 0 6 C0 4.02 0 2.04 0 0 Z " fill="#404040" transform="translate(220,329)"/>
<path d="M0 0 C7.26 0 14.52 0 22 0 C22 0.66 22 1.32 22 2 C17.545 2.495 17.545 2.495 13 3 C13 2.67 13 2.34 13 2 C8.71 1.67 4.42 1.34 0 1 C0 0.67 0 0.34 0 0 Z " fill="#181819" transform="translate(232,233)"/>
<path d="M0 0 C1.98 0 3.96 0 6 0 C6.5625 1.9375 6.5625 1.9375 7 4 C6 5 6 5 2.9375 5.0625 C1.4834375 5.0315625 1.4834375 5.0315625 0 5 C0 3.35 0 1.7 0 0 Z " fill="#4F4F4F" transform="translate(283,315)"/>
<path d="M0 0 C7.625 1.75 7.625 1.75 11 4 C10.67 4.66 10.34 5.32 10 6 C6.37 5.34 2.74 4.68 -1 4 C-0.67 2.68 -0.34 1.36 0 0 Z " fill="#323233" transform="translate(257,118)"/>
<path d="M0 0 C-9.25 6.30681818 -9.25 6.30681818 -16 6 C-13.54851336 4.36567557 -11.1003972 2.80613596 -8.5625 1.3125 C-7.80066406 0.85488281 -7.03882813 0.39726562 -6.25390625 -0.07421875 C-3.65892769 -1.14009383 -2.58092835 -0.9700528 0 0 Z " fill="#524E72" transform="translate(317,386)"/>
<path d="M0 0 C0.66 0.33 1.32 0.66 2 1 C1.01 2.32 0.02 3.64 -1 5 C-0.34 5.33 0.32 5.66 1 6 C-0.1875 7.5 -0.1875 7.5 -2 9 C-4.6875 9.1875 -4.6875 9.1875 -7 9 C-5.44499019 5.18315774 -2.96404505 2.80804268 0 0 Z " fill="#463F69" transform="translate(367,343)"/>
<path d="M0 0 C3 1 3 1 4.75 3.125 C6.34903493 6.80278035 5.83249295 9.14025994 5 13 C3.49439503 10.14589666 2.36783204 7.31875358 1.375 4.25 C0.98441406 3.05117187 0.98441406 3.05117187 0.5859375 1.828125 C0.39257812 1.22484375 0.19921875 0.6215625 0 0 Z M3 0 C5 1 5 1 5 1 Z " fill="#9894AE" transform="translate(260,145)"/>
<path d="M0 0 C3.3 0 6.6 0 10 0 C10.33 0.99 10.66 1.98 11 3 C8.1875 4.125 8.1875 4.125 5 5 C4.01 4.34 3.02 3.68 2 3 C2.66 2.67 3.32 2.34 4 2 C2.68 1.34 1.36 0.68 0 0 Z " fill="#2B2B2C" transform="translate(199,123)"/>
<path d="M0 0 C2.6875 0.875 2.6875 0.875 5 2 C5 2.66 5 3.32 5 4 C7.31 4.33 9.62 4.66 12 5 C12.33 5.99 12.66 6.98 13 8 C7.53262809 6.25192871 2.24175152 4.34205919 -3 2 C-2.01 1.34 -1.02 0.68 0 0 Z " fill="#9E9BAE" transform="translate(297,43)"/>
<path d="M0 0 C0.8971875 0.5259375 0.8971875 0.5259375 1.8125 1.0625 C0.1060368 1.79862138 -1.60110535 2.53323009 -3.3125 3.2578125 C-4.84524616 3.91561606 -6.36264563 4.60907936 -7.875 5.3125 C-10.45533672 6.14936596 -11.67736514 5.99217958 -14.1875 5.0625 C-13.07375 4.60875 -11.96 4.155 -10.8125 3.6875 C-7.22550992 2.33784014 -7.22550992 2.33784014 -5.1875 0.0625 C-2.1875 -0.9375 -2.1875 -0.9375 0 0 Z " fill="#A9A6B7" transform="translate(174.1875,35.9375)"/>
<path d="M0 0 C0.74362793 0.01047363 1.48725586 0.02094727 2.25341797 0.03173828 C3.46191406 0.04140625 3.46191406 0.04140625 4.69482422 0.05126953 C5.95746094 0.07640625 5.95746094 0.07640625 7.24560547 0.10205078 C8.51984375 0.11558594 8.51984375 0.11558594 9.81982422 0.12939453 C11.9202043 0.15299431 14.02043991 0.18886595 16.12060547 0.22705078 C15.13060547 1.71205078 15.13060547 1.71205078 14.12060547 3.22705078 C13.09386719 2.98148437 13.09386719 2.98148437 12.04638672 2.73095703 C8.74627767 2.16258044 5.65506478 2.13074311 2.30810547 2.16455078 C1.14666016 2.17357422 -0.01478516 2.18259766 -1.21142578 2.19189453 C-2.09185547 2.20349609 -2.97228516 2.21509766 -3.87939453 2.22705078 C-1.87939453 0.22705078 -1.87939453 0.22705078 0 0 Z " fill="#A5A2B5" transform="translate(203.87939453125,3.77294921875)"/>
<path d="M0 0 C1.66611905 -0.042721 3.33382885 -0.04063832 5 0 C6 1 6 1 6.0625 3.5625 C6.041875 4.366875 6.02125 5.17125 6 6 C5.01 5.67 4.02 5.34 3 5 C2.67 5.33 2.34 5.66 2 6 C1.01 6 0.02 6 -1 6 C-0.67 4.02 -0.34 2.04 0 0 Z " fill="#454545" transform="translate(182,314)"/>
<path d="M0 0 C3.9492568 0.55105909 7.34920174 1.38935371 11 3 C9.68 3.99 8.36 4.98 7 6 C3.535 4.02 3.535 4.02 0 2 C0 1.34 0 0.68 0 0 Z " fill="#29292A" transform="translate(199,223)"/>
<path d="M0 0 C1.9375 0.8125 1.9375 0.8125 4 2 C4.33 2.99 4.66 3.98 5 5 C6.32407669 5.68486725 7.65909241 6.34870203 9 7 C10.37086915 8.29470975 11.71340837 9.62150897 13 11 C9.16336928 9.65070536 6.34827431 7.92248975 3.1875 5.375 C2.39730469 4.74335938 1.60710937 4.11171875 0.79296875 3.4609375 C0.20128906 2.97882813 -0.39039062 2.49671875 -1 2 C-0.67 1.34 -0.34 0.68 0 0 Z " fill="#575275" transform="translate(88,384)"/>
<path d="M0 0 C0 0.33 0 0.66 0 1 C-3.63 1 -7.26 1 -11 1 C-10.01 1.66 -9.02 2.32 -8 3 C-14.625 2.25 -14.625 2.25 -18 0 C-12.11981331 -1.96006223 -6.00309571 -1.00051595 0 0 Z " fill="#4D4D4D" transform="translate(234,232)"/>
<path d="M0 0 C0.99 0.33 1.98 0.66 3 1 C3 2.65 3 4.3 3 6 C0.03 6.66 -2.94 7.32 -6 8 C-6 7.34 -6 6.68 -6 6 C-5.34 6 -4.68 6 -4 6 C-3.67 5.34 -3.34 4.68 -3 4 C-2.34 4 -1.68 4 -1 4 C-0.67 2.68 -0.34 1.36 0 0 Z " fill="#373060" transform="translate(297,416)"/>
<path d="M0 0 C2.31 0 4.62 0 7 0 C6.09674384 1.32176485 5.17682097 2.63215066 4.25 3.9375 C3.73953125 4.66839844 3.2290625 5.39929688 2.703125 6.15234375 C1 8 1 8 -3 9 C-1.02 6.36 0.96 3.72 3 1 C2.01 0.67 1.02 0.34 0 0 Z " fill="#ADA5C2" transform="translate(194,143)"/>
<path d="M0 0 C-0.99 0.33 -1.98 0.66 -3 1 C-2.34 1.66 -1.68 2.32 -1 3 C-3.97 3.66 -6.94 4.32 -10 5 C-10 3.68 -10 2.36 -10 1 C-3.71428571 -1.42857143 -3.71428571 -1.42857143 0 0 Z " fill="#343335" transform="translate(224,119)"/>
<path d="M0 0 C-0.33 2.31 -0.66 4.62 -1 7 C-1.99 7.33 -2.98 7.66 -4 8 C-6 4.25 -6 4.25 -6 2 C-2.25 0 -2.25 0 0 0 Z " fill="#181818" transform="translate(220,86)"/>
<path d="M0 0 C2.31 0.33 4.62 0.66 7 1 C6.01 1.495 6.01 1.495 5 2 C5.515625 2.94875 6.03125 3.8975 6.5625 4.875 C7.036875 5.90625 7.51125 6.9375 8 8 C7.67 8.66 7.34 9.32 7 10 C5.83043409 8.52312468 4.66441854 7.04343707 3.5 5.5625 C2.8503125 4.73878906 2.200625 3.91507812 1.53125 3.06640625 C0 1 0 1 0 0 Z " fill="#635E7F" transform="translate(57,354)"/>
<path d="M0 0 C1.65 0 3.3 0 5 0 C5.33 1.65 5.66 3.3 6 5 C5.34 5 4.68 5 4 5 C4 4.01 4 3.02 4 2 C3.34 2 2.68 2 2 2 C2 2.99 2 3.98 2 5 C1.01 5 0.02 5 -1 5 C-0.67 3.35 -0.34 1.7 0 0 Z " fill="#323232" transform="translate(230,329)"/>
<path d="M0 0 C0.99 0 1.98 0 3 0 C3 2.97 3 5.94 3 9 C2.01 9 1.02 9 0 9 C0 6.03 0 3.06 0 0 Z " fill="#515151" transform="translate(265,312)"/>
<path d="M0 0 C2.31 0 4.62 0 7 0 C7 1.65 7 3.3 7 5 C6.34 5 5.68 5 5 5 C5 3.68 5 2.36 5 1 C4.34 1 3.68 1 3 1 C3 2.32 3 3.64 3 5 C2.01 5 1.02 5 0 5 C0 3.35 0 1.7 0 0 Z " fill="#282828" transform="translate(190,315)"/>
<path d="M0 0 C1.98 0.495 1.98 0.495 4 1 C4 2.65 4 4.3 4 6 C2.35 5.67 0.7 5.34 -1 5 C-0.67 3.35 -0.34 1.7 0 0 Z " fill="#F3F3FA" transform="translate(280,175)"/>
<path d="M0 0 C3.3 0 6.6 0 10 0 C8.68 0.33 7.36 0.66 6 1 C6 2.98 6 4.96 6 7 C3.95880212 5.38405168 1.95927063 3.7143618 0 2 C0 1.34 0 0.68 0 0 Z " fill="#CAC9CD" transform="translate(243,120)"/>
<path d="M0 0 C0.66 0 1.32 0 2 0 C3 5.75 3 5.75 3 8 C1.68 7.67 0.36 7.34 -1 7 C-1.04254356 5.00045254 -1.04080783 2.99958364 -1 1 C-0.67 0.67 -0.34 0.34 0 0 Z " fill="#404040" transform="translate(207,327)"/>
<path d="M0 0 C0.99 0 1.98 0 3 0 C3 0.66 3 1.32 3 2 C4.32 2.33 5.64 2.66 7 3 C6.67 3.99 6.34 4.98 6 6 C4.35 6 2.7 6 1 6 C0.4465236 3.92446352 0 2.15634036 0 0 Z " fill="#4F4F4F" transform="translate(203,315)"/>
<path d="M0 0 C1.65 0 3.3 0 5 0 C5 0.66 5 1.32 5 2 C4.34 2 3.68 2 3 2 C3 3.65 3 5.3 3 7 C2.01 7 1.02 7 0 7 C0 4.69 0 2.38 0 0 Z " fill="#5F5F5F" transform="translate(166,314)"/>
<path d="M0 0 C0.99 1.32 1.98 2.64 3 4 C2.34 5.32 1.68 6.64 1 8 C-0.32 7.67 -1.64 7.34 -3 7 C-2.01 7 -1.02 7 0 7 C-0.66 6.01 -1.32 5.02 -2 4 C-2 3.01 -2 2.02 -2 1 C-1.34 0.67 -0.68 0.34 0 0 Z " fill="#29272C" transform="translate(178,197)"/>
<path d="M0 0 C0 0.66 0 1.32 0 2 C-2.52475462 3.26237731 -4.31200466 3.09856404 -7.125 3.0625 C-8.03507813 3.05347656 -8.94515625 3.04445313 -9.8828125 3.03515625 C-10.58148438 3.02355469 -11.28015625 3.01195313 -12 3 C-7.78372195 0.18914797 -4.97048208 -0.11045516 0 0 Z " fill="#0E0C0F" transform="translate(230,118)"/>
<path d="M0 0 C1.65 0 3.3 0 5 0 C5 0.99 5 1.98 5 3 C2.69 3.66 0.38 4.32 -2 5 C-1.34 3.35 -0.68 1.7 0 0 Z " fill="#423C6B" transform="translate(377,330)"/>
<path d="M0 0 C1.65 0 3.3 0 5 0 C4.67 1.65 4.34 3.3 4 5 C2.35 4.67 0.7 4.34 -1 4 C-0.67 2.68 -0.34 1.36 0 0 Z " fill="#525252" transform="translate(173,315)"/>
<path d="M0 0 C0.99 0 1.98 0 3 0 C3 2.64 3 5.28 3 8 C2.01 8 1.02 8 0 8 C0 5.36 0 2.72 0 0 Z " fill="#686868" transform="translate(269,312)"/>
<path d="M0 0 C2.97 0 5.94 0 9 0 C8.360625 0.61875 7.72125 1.2375 7.0625 1.875 C4.96116416 3.82597612 4.96116416 3.82597612 4 6 C2.62437146 4.71034824 1.29233607 3.37310707 0 2 C0 1.34 0 0.68 0 0 Z " fill="#D0CFD6" transform="translate(190,212)"/>
<path d="M0 0 C0.66 0 1.32 0 2 0 C0.61811547 3.21043882 -0.92421903 5.04936365 -3.625 7.25 C-4.57246094 8.03117187 -4.57246094 8.03117187 -5.5390625 8.828125 C-6.02117187 9.21484375 -6.50328125 9.6015625 -7 10 C-6.29822123 6.76513406 -5.63523506 5.10818805 -3 3 C-2.34 3 -1.68 3 -1 3 C-0.67 2.01 -0.34 1.02 0 0 Z " fill="#332D55" transform="translate(386,359)"/>
<path d="M0 0 C2.0625 0.4375 2.0625 0.4375 4 1 C4 2.65 4 4.3 4 6 C3.34 6 2.68 6 2 6 C2 4.68 2 3.36 2 2 C1.34 2 0.68 2 0 2 C0 3.65 0 5.3 0 7 C-0.99 6.67 -1.98 6.34 -3 6 C-2.34 6 -1.68 6 -1 6 C-1.0309375 4.7934375 -1.0309375 4.7934375 -1.0625 3.5625 C-1 1 -1 1 0 0 Z " fill="#525252" transform="translate(219,314)"/>
<path d="M0 0 C0.33 0.66 0.66 1.32 1 2 C1.66 2 2.32 2 3 2 C2.38461538 7.53846154 2.38461538 7.53846154 0.4375 9.875 C-0.036875 10.24625 -0.51125 10.6175 -1 11 C-1.125 3.375 -1.125 3.375 0 0 Z " fill="#201E21" transform="translate(172,162)"/>
<path d="M0 0 C1.65 0 3.3 0 5 0 C5.33 1.65 5.66 3.3 6 5 C4.68 5.33 3.36 5.66 2 6 C2.66 5.67 3.32 5.34 4 5 C4 4.01 4 3.02 4 2 C3.01 2 2.02 2 1 2 C0.67 2.66 0.34 3.32 0 4 C0 2.68 0 1.36 0 0 Z " fill="#313131" transform="translate(252,329)"/>
<path d="M0 0 C0.66 0 1.32 0 2 0 C2 0.66 2 1.32 2 2 C3.65 2 5.3 2 7 2 C7 2.33 7 2.66 7 3 C1.94997778 4.03590199 -2.87416389 4.10251672 -8 4 C-8 3.67 -8 3.34 -8 3 C-5.69 3 -3.38 3 -1 3 C-0.67 2.01 -0.34 1.02 0 0 Z " fill="#A496B1" transform="translate(190,152)"/>
<path d="M0 0 C1.9375 0.5625 1.9375 0.5625 4 2 C4.75 5.625 4.75 5.625 5 9 C1.7457985 6.16569547 0.4793247 4.31392226 0 0 Z " fill="#161616" transform="translate(299,148)"/>
<path d="M0 0 C0.66 0.33 1.32 0.66 2 1 C1.34 2.65 0.68 4.3 0 6 C-0.99 5.67 -1.98 5.34 -3 5 C-3.33 5.66 -3.66 6.32 -4 7 C-4.33 6.01 -4.66 5.02 -5 4 C-3.36587557 2.29159719 -2.13093906 1.06546953 0 0 Z " fill="#A3A0B4" transform="translate(134,23)"/>
<path d="M0 0 C2.97 0.495 2.97 0.495 6 1 C6.33 1.99 6.66 2.98 7 4 C4.69 4 2.38 4 0 4 C-0.33 3.34 -0.66 2.68 -1 2 C-0.67 1.34 -0.34 0.68 0 0 Z " fill="#373065" transform="translate(274,424)"/>
<path d="M0 0 C0.33 0.66 0.66 1.32 1 2 C1.99 1.67 2.98 1.34 4 1 C4.66 2.32 5.32 3.64 6 5 C5.34 5.66 4.68 6.32 4 7 C2.35 5.35 0.7 3.7 -1 2 C-0.67 1.34 -0.34 0.68 0 0 Z " fill="#5A5679" transform="translate(82,378)"/>
<path d="M0 0 C0.33 0 0.66 0 1 0 C0.67 3.63 0.34 7.26 0 11 C-0.66 10.67 -1.32 10.34 -2 10 C-2.4140625 7.93359375 -2.4140625 7.93359375 -2.625 5.4375 C-2.69976562 4.61121094 -2.77453125 3.78492188 -2.8515625 2.93359375 C-2.90054687 2.29550781 -2.94953125 1.65742188 -3 1 C-2.01 1.33 -1.02 1.66 0 2 C0 1.34 0 0.68 0 0 Z " fill="#464069" transform="translate(437,248)"/>
<path d="M0 0 C1.65 0 3.3 0 5 0 C5 2.31 5 4.62 5 7 C3.02 5.35 1.04 3.7 -1 2 C-0.67 1.34 -0.34 0.68 0 0 Z " fill="#625D7D" transform="translate(66,363)"/>
<path d="M0 0 C0.66 0 1.32 0 2 0 C2 0.99 2 1.98 2 3 C2.66 3 3.32 3 4 3 C4.33 2.34 4.66 1.68 5 1 C5.33 1.99 5.66 2.98 6 4 C4.68 4 3.36 4 2 4 C2 4.99 2 5.98 2 7 C1.34 7 0.68 7 0 7 C0 4.69 0 2.38 0 0 Z " fill="#191919" transform="translate(239,313)"/>
<path d="M0 0 C2.97 0.99 5.94 1.98 9 3 C8.34 3.66 7.68 4.32 7 5 C4.17042171 4.63723355 1.70915709 3.90305236 -1 3 C-0.67 2.01 -0.34 1.02 0 0 Z " fill="#CECCD3" transform="translate(212,225)"/>
<path d="M0 0 C0.99 0.33 1.98 0.66 3 1 C4.1875 4.0625 4.1875 4.0625 5 7 C3.02 6.01 1.04 5.02 -1 4 C-0.67 2.68 -0.34 1.36 0 0 Z " fill="#948EAB" transform="translate(251,145)"/>
<path d="M0 0 C4.75 0.875 4.75 0.875 7 2 C6.67 2.99 6.34 3.98 6 5 C4.02 4.34 2.04 3.68 0 3 C0 2.01 0 1.02 0 0 Z " fill="#18181A" transform="translate(267,122)"/>
<path d="M0 0 C1.32 0 2.64 0 4 0 C5.75 2.5 5.75 2.5 7 5 C6.01 5.33 5.02 5.66 4 6 C0 1.125 0 1.125 0 0 Z " fill="#7D7893" transform="translate(368,96)"/>
<path d="M0 0 C0.99 0.33 1.98 0.66 3 1 C0.69 3.64 -1.62 6.28 -4 9 C-4.33 8.01 -4.66 7.02 -5 6 C-4.34 5.67 -3.68 5.34 -3 5 C-1.9590934 3.35857037 -0.95495674 1.69287785 0 0 Z " fill="#A4A1B2" transform="translate(84,90)"/>
<path d="M0 0 C0.66 0.33 1.32 0.66 2 1 C2 1.99 2 2.98 2 4 C2.66 4 3.32 4 4 4 C4.66 5.65 5.32 7.3 6 9 C4.85073734 8.04578192 3.70569459 7.08647955 2.5625 6.125 C1.92441406 5.59132813 1.28632813 5.05765625 0.62890625 4.5078125 C-1 3 -1 3 -2 1 C-1.34 0.67 -0.68 0.34 0 0 Z " fill="#8C89A0" transform="translate(357,82)"/>
<path d="M0 0 C0.66 0.33 1.32 0.66 2 1 C2 1.66 2 2.32 2 3 C6.455 3.99 6.455 3.99 11 5 C11 5.33 11 5.66 11 6 C7.37 5.67 3.74 5.34 0 5 C-0.33 3.68 -0.66 2.36 -1 1 C-0.67 0.67 -0.34 0.34 0 0 Z " fill="#3C3861" transform="translate(186,427)"/>
<path d="M0 0 C0.66 0.99 1.32 1.98 2 3 C-0.64738916 4.4606285 -1.89448334 5 -5 5 C-4.1875 3.0625 -4.1875 3.0625 -3 1 C-2.01 0.67 -1.02 0.34 0 0 Z " fill="#312B59" transform="translate(319,410)"/>
<path d="M0 0 C0.99 0.99 1.98 1.98 3 3 C2.67 3.66 2.34 4.32 2 5 C-2.75 4.25 -2.75 4.25 -5 2 C-3.35 1.34 -1.7 0.68 0 0 Z " fill="#3D356D" transform="translate(341,371)"/>
<path d="M0 0 C1.32 0.33 2.64 0.66 4 1 C3.67 2.65 3.34 4.3 3 6 C2.01 6 1.02 6 0 6 C0 4.02 0 2.04 0 0 Z " fill="#515151" transform="translate(238,329)"/>
<path d="M0 0 C0.33 0 0.66 0 1 0 C0.67 2.97 0.34 5.94 0 9 C-0.66 9 -1.32 9 -2 9 C-1.125 1.125 -1.125 1.125 0 0 Z " fill="#6A6684" transform="translate(407,267)"/>
<path d="M0 0 C0.99 0.99 1.98 1.98 3 3 C0.525 4.485 0.525 4.485 -2 6 C-2.66 5.34 -3.32 4.68 -4 4 C-2.68 2.68 -1.36 1.36 0 0 Z " fill="#D6D5DA" transform="translate(281,216)"/>
<path d="M0 0 C0.66 0 1.32 0 2 0 C0.71480435 2.86697492 -0.57129254 4.97607712 -3 7 C-3.66 7 -4.32 7 -5 7 C-4.34 5.35 -3.68 3.7 -3 2 C-2.01 2 -1.02 2 0 2 C0 1.34 0 0.68 0 0 Z " fill="#CFCED5" transform="translate(289,211)"/>
<path d="M0 0 C0.99 0.33 1.98 0.66 3 1 C1.35 2.98 -0.3 4.96 -2 7 C-2.66 6.67 -3.32 6.34 -4 6 C-2.68 4.02 -1.36 2.04 0 0 Z " fill="#0F0F0F" transform="translate(295,208)"/>
<path d="M0 0 C1.66611905 -0.042721 3.33382885 -0.04063832 5 0 C6 1 6 1 6.0625 3.5625 C6.041875 4.366875 6.02125 5.17125 6 6 C5.01 5.67 4.02 5.34 3 5 C3 4.34 3 3.68 3 3 C1.54166642 1.37485532 1.54166642 1.37485532 0 0 Z " fill="#2D1639" transform="translate(238,148)"/>
<path d="M0 0 C3.63 0 7.26 0 11 0 C10.34 1.65 9.68 3.3 9 5 C8.34 4.34 7.68 3.68 7 3 C7.33 2.34 7.66 1.68 8 1 C5.36 1 2.72 1 0 1 C0 0.67 0 0.34 0 0 Z " fill="#EAE6EA" transform="translate(169,145)"/>
<path d="M0 0 C0.66 0.33 1.32 0.66 2 1 C2 1.66 2 2.32 2 3 C-2.95 3 -7.9 3 -13 3 C-13 2.67 -13 2.34 -13 2 C-12.14535156 1.93941406 -11.29070312 1.87882813 -10.41015625 1.81640625 C-8.75306641 1.69072266 -8.75306641 1.69072266 -7.0625 1.5625 C-5.96035156 1.48128906 -4.85820312 1.40007812 -3.72265625 1.31640625 C-1.08890097 1.29581916 -1.08890097 1.29581916 0 0 Z " fill="#C2BBCF" transform="translate(242,129)"/>
<path d="M0 0 C4.62 0 9.24 0 14 0 C14 0.33 14 0.66 14 1 C12.42249576 1.41846009 10.83755752 1.80896389 9.25 2.1875 C7.92742187 2.51814453 7.92742187 2.51814453 6.578125 2.85546875 C4 3 4 3 0 0 Z " fill="#9291A4" transform="translate(217,3)"/>
<path d="M0 0 C2.475 0.495 2.475 0.495 5 1 C5 1.99 5 2.98 5 4 C3.68 4.33 2.36 4.66 1 5 C0.67 3.35 0.34 1.7 0 0 Z " fill="#5B577C" transform="translate(106,369)"/>
<path d="M0 0 C0.66 0.33 1.32 0.66 2 1 C1.67 2.32 1.34 3.64 1 5 C0.34 5 -0.32 5 -1 5 C-1.33 6.32 -1.66 7.64 -2 9 C-2.6875 7.3125 -2.6875 7.3125 -3 5 C-1.5625 2.25 -1.5625 2.25 0 0 Z " fill="#676087" transform="translate(406,151)"/>
<path d="M0 0 C2.97 0.495 2.97 0.495 6 1 C5.34 2.65 4.68 4.3 4 6 C2.62437146 4.71034824 1.29233607 3.37310707 0 2 C0 1.34 0 0.68 0 0 Z " fill="#A19DB5" transform="translate(57,121)"/>
<path d="M0 0 C2.6875 0.3125 2.6875 0.3125 5 1 C5 1.99 5 2.98 5 4 C2.36 3.67 -0.28 3.34 -3 3 C-1.8125 1.4375 -1.8125 1.4375 0 0 Z " fill="#534C7B" transform="translate(129,409)"/>
<path d="M0 0 C1.2065625 0.0309375 1.2065625 0.0309375 2.4375 0.0625 C2.7675 1.0525 3.0975 2.0425 3.4375 3.0625 C2.1175 2.7325 0.7975 2.4025 -0.5625 2.0625 C-0.8925 3.0525 -1.2225 4.0425 -1.5625 5.0625 C-1.5625 4.0725 -1.5625 3.0825 -1.5625 2.0625 C-2.2225 1.7325 -2.8825 1.4025 -3.5625 1.0625 C-2.5625 0.0625 -2.5625 0.0625 0 0 Z " fill="#787878" transform="translate(277.5625,313.9375)"/>
<path d="M0 0 C1.32 0.66 2.64 1.32 4 2 C2.35 3.65 0.7 5.3 -1 7 C-0.67 4.69 -0.34 2.38 0 0 Z " fill="#47416D" transform="translate(401,286)"/>
<path d="M0 0 C2 3 2 3 2 5 C2.99 4.67 3.98 4.34 5 4 C5 4.99 5 5.98 5 7 C4.01 7.495 4.01 7.495 3 8 C2.34 7.67 1.68 7.34 1 7 C0.59270772 4.67843403 0.25561323 2.3431213 0 0 Z " fill="#86829A" transform="translate(17,276)"/>
<path d="M0 0 C0.66 0 1.32 0 2 0 C2.33 2.97 2.66 5.94 3 9 C0.9375 7.3125 0.9375 7.3125 -1 5 C-0.75 2.25 -0.75 2.25 0 0 Z " fill="#9E9E9E" transform="translate(244,260)"/>
<path d="M0 0 C0.33 0.99 0.66 1.98 1 3 C1.99 3 2.98 3 4 3 C3.67 4.32 3.34 5.64 3 7 C1.68 6.01 0.36 5.02 -1 4 C-0.67 2.68 -0.34 1.36 0 0 Z " fill="#86839A" transform="translate(335,62)"/>
<path d="M0 0 C1.32 0 2.64 0 4 0 C4.33 1.65 4.66 3.3 5 5 C4.01 5 3.02 5 2 5 C2 4.34 2 3.68 2 3 C1.34 3 0.68 3 0 3 C0 2.01 0 1.02 0 0 Z " fill="#9894AF" transform="translate(274,10)"/>
</svg>
